<?xml version="1.0" encoding="utf-8"?>
<!-- Generator: Adobe Illustrator 27.2.0, SVG Export Plug-In . SVG Version: 6.00 Build 0)  -->
<svg version="1.1" id="圖層_1" xmlns="http://www.w3.org/2000/svg" xmlns:xlink="http://www.w3.org/1999/xlink" x="0px" y="0px"
	 viewBox="0 0 1278.2 330.2" style="enable-background:new 0 0 1278.2 330.2;" xml:space="preserve">
<style type="text/css">
	.st0{fill-rule:evenodd;clip-rule:evenodd;fill:#6E1317;}
	.st1{fill-rule:evenodd;clip-rule:evenodd;fill:#7F181D;}
	.st2{fill-rule:evenodd;clip-rule:evenodd;fill:#FFFFFF;}
	.st3{fill-rule:evenodd;clip-rule:evenodd;fill:#FFFEFD;}
	.st4{fill-rule:evenodd;clip-rule:evenodd;fill:#0C0503;}
	.st5{fill-rule:evenodd;clip-rule:evenodd;fill:#651014;}
	.st6{fill-rule:evenodd;clip-rule:evenodd;fill:#941C21;}
</style>
<g>
	<path class="st0" d="M238.7,24.3c9.3,4.9,19.3,11.2,29.8,18.7c0.3,0.2,0.4,0.5,0.4,0.8c0.3,40.3,0.3,80.5,0,120.8
		c-0.1,8.3-0.4,15-1,20c-2.2,18.3-7.4,35.3-15.5,50.9c-11.5,22.2-27.5,39.6-48.1,52.4c-8.4,5.2-18.8,10.7-31.1,16.6
		c-2.7,1.3-6.1,3.2-10.3,5.7c-3,1.8-6.3,4-9.8,6.4c-6.2,4.4-12.4,8.9-18.5,13.4c-0.3,0.3-0.8,0.2-1.1-0.1
		c-8.8-8-18.2-14.9-28.3-20.7c-0.3-0.2-6.3-3.1-17.9-8.9c-8.2-4-16-8.5-23.6-13.4c-6-3.9-11.3-8-15.9-12.1
		c-21.1-18.8-35.2-42.3-42.4-70.5c-2.4-9.4-4-18.8-4.7-28c-0.3-4.1-0.5-10.8-0.5-20c0-36.3,0-72.6,0-108.9c0-0.1,0-0.6-0.1-1.7
		c-0.1-1.8,0.6-3.2,2.1-4.1c1.2-0.7,1.8-1,1.8-1.1C30.3,22.3,60.3,10.1,93.9,4.2c22.9-4,44.5-5.1,64.7-3.3
		C187.3,3.5,214,11.3,238.7,24.3L238.7,24.3z M238.4,26.3c-29.8-15.6-60.8-23.7-93.1-24.4C114.5,1.2,84.4,6,55.3,16.1
		C40.2,21.3,26,28.4,12.7,37.2c-3.3,2.2-6.6,4.4-10,6.7c-0.4,0.2-0.6,0.7-0.6,1.1c0,42,0.1,84,0.2,125.9c0,4.1,0.4,9.2,1.3,15.3
		c3.2,23.9,11.5,45.4,24.9,64.6c3.9,5.5,8.1,10.6,12.7,15.4c10,10.3,21.5,19,34.3,25.9c6.9,3.7,13.8,7.2,20.9,10.6
		c13.3,6.2,25.8,14.6,37.4,25c0.3,0.3,0.7,0.3,1,0c11.9-9.8,24.8-18.2,38.7-25.3c4.3-2.2,11.5-6,21.3-11.3c11.1-6,21-13.1,29.8-21.4
		c4.7-4.4,9.1-9.4,13.2-14.9c16.3-21.8,25.9-46.4,28.6-73.7c0.5-4.6,0.7-11.3,0.7-20c0-38.8,0-77.6-0.1-116.4c0-0.3-0.1-0.6-0.4-0.8
		C254.2,35.5,244.8,29.7,238.4,26.3z"/>
	<path class="st1" d="M121.2,27.1c3.2,0.1,3.4,1.4,0.4,3.9c-0.6,0.5-0.5,1.4,0.2,1.7c1.5,0.7,2.4,1.4,2.7,2c0.5,0.8,0.2,1.2-0.7,1.1
		c-2.8-0.1-5.2,0.5-7.3,1.9c-1.3,0.8-2.4,0.6-3.4-0.6c-1-1.2-0.7-1.9,0.8-2.2c2-0.3,3.4-1.2,4.4-2.6c0.3-0.4,0-1-0.5-1.1
		c-1.7-0.2-1.9-0.9-0.7-1.9c0.2-0.1,0.3-0.3,0.4-0.5c0.7-1.4,0.5-1.5-0.8-0.4c-0.6,0.6-1.2,1.2-1.7,1.9c-0.6,0.9-1.2,1.3-1.8,1.4
		c-1,0.1-1.7-0.4-2.2-1.7c-0.3-0.7-0.6-2.3-0.9-4.9c-0.1-1.2,0.2-1.9,0.9-2c0.4-0.1,0.7-0.2,0.8-0.4c1.2-1.6,2.1-3.3,2.7-5.2
		c0.1-0.3,0.3-0.6,0.6-0.7c1-0.5,2.1-0.8,3.2-0.9c1.1-0.1,2.2-0.1,3.2,0c2.5,0.1,3.7,1.5,3.8,4.3c0,0.2-0.1,0.5-0.3,0.9l-4.1,5.7
		C120.7,26.9,120.8,27.1,121.2,27.1L121.2,27.1z M119.6,20.8c0.4,0.3,1.2-0.2,1.7-1c0.6-0.8,0.7-1.7,0.3-2c-0.4-0.3-1.2,0.2-1.7,1
		C119.3,19.7,119.2,20.6,119.6,20.8L119.6,20.8z M112.5,23.8c-0.1,0.1-0.2,0.2-0.2,0.4c0,0.3,0.3,0.5,0.7,0.4
		c1.6-0.1,2.8-0.8,3.6-1.9c0.4-0.5,0.6-1.1,0.6-1.7c0-1.3-0.7-1.7-2.3-0.9c-1,0.5-1.7,1.5-2,3.2C112.8,23.4,112.7,23.6,112.5,23.8
		L112.5,23.8z M112.7,27.5c-0.5,0.8-0.3,1.1,0.6,0.7c0.6-0.2,1.1-0.7,1.4-1.3c0.1-0.3,0-0.6-0.3-0.6
		C113.8,26.1,113.2,26.5,112.7,27.5z"/>
	<path class="st1" d="M104.3,25.8l-2.5-1.2c-0.3-0.1-0.4-0.4-0.4-0.8c0.3-2.1,1.3-3.5,3.2-4.5c0.3-0.2,0.6-0.2,0.9-0.1
		c2,0.6,2.5,2.1,1.7,4.4c-0.7,1.8-0.2,3.1,1.6,3.9c0.6,0.2,1,1.2,1.4,2.8c0.1,0.3,0,0.6-0.2,0.9c-2.1,2.7-4.2,5.3-6.2,8
		c-0.4,0.5-0.7,0.8-1.1,1.1c-1.1,0.7-1.6,0.4-1.6-1.1c0-1,0.5-1.9,1.3-2.4c1.9-1.3,2.2-2.2,1-2.8c-0.4-0.2-0.6-0.3-0.8-0.5
		c-1-1.3-0.7-2.4,0.8-3.2c1.6-0.9,2.1-2.2,1.6-3.8C104.9,26.2,104.7,26,104.3,25.8z"/>
	<path class="st1" d="M199.6,34.4c-3.2-1.2-6.9-1.2-11.1,0.1c-0.6,0.2-1.2,0.7-1.5,1.3c-0.2,0.4-0.6,0.4-1.3,0.1
		c-0.3-0.1-0.4-0.4-0.4-0.7c0-1.6,0.3-3.1,1.1-4.6c0.7-1.4,1.9-1.9,3.7-1.6c0.6,0.1,1.2-0.4,1.2-1c-0.2-1.6,0.2-3,1.2-4.4
		c0.7-1,1.3-1,1.9,0c0.4,0.6,0.4,1.9,0.1,3.7c-0.1,0.7,0,1,0.3,1c0.3,0,0.4-0.4,0.3-0.7c-0.3-2,0.2-3.7,1.7-5.1
		c0.7-0.7,1-0.5,0.7,0.4c-0.3,1.2-0.1,1.8,0.6,1.9c0.3,0,0.6-0.1,0.8-0.4l1.6-4c0.5-1.1,0.8-1.1,1,0.1c0.1,0.7-0.1,1.7-0.6,2.9
		c-0.1,0.3,0,0.6,0.3,0.7c1.5,0.6,2.8,0.8,4,0.5c1-0.2,1.8,0.1,2.7,0.9c0.2,0.2,0.3,0.5,0.2,0.9c-0.4,2.3-1.5,4.5-3.1,6.4
		c-0.3,0.4-0.3,1,0.2,1.3c1.1,0.9,1.5,1.7,1,2.6c-0.1,0.3-0.4,0.5-0.8,0.5c-1,0.1-2,0-2.9-0.5c-0.3-0.2-0.6-0.2-0.9-0.2
		c-2.6,0.4-3.9,2-4.1,4.6c0,0.2,0.2,0.5,0.5,0.6l0.8,0.3c0.3,0.1,0.5,0.4,0.5,0.8c0.1,0.9-0.4,1.1-1.6,0.6c-0.5-0.2-1.1,0.1-1.2,0.6
		c-0.3,1.2-0.9,2.2-1.7,2.9c-0.8,0.6-1.7,0.8-3,0.6c-1.7-0.3-3.3-1-4.7-2c-0.4-0.3-0.5-0.6-0.4-0.9c0.1-0.2,0.4-0.4,0.7-0.2
		c0.8,0.3,2.1,0.6,3.8,0.8c1.1,0.1,1.9-0.1,2.3-0.8c0.2-0.2,0.1-0.6-0.2-0.7c-0.5-0.3-1-0.4-1.6-0.5c-0.4,0-0.7-0.1-0.9-0.3
		c-2.1-1.4-1.1-2,2.9-1.7c0.4,0,0.5-0.1,0.3-0.5c-0.8-1.4-0.2-2.3,1.6-2.6c0.2,0,0.4-0.1,0.6-0.2c0.5-0.4,0.3-0.6-0.6-0.5
		c-0.2,0-0.4,0.1-0.7,0.2c-3.2,1.2-3.9,0.6-2-1.7c0.2-0.2,0.5-0.4,0.8-0.4l6.2-0.5C199.9,34.6,199.9,34.5,199.6,34.4L199.6,34.4z
		 M203.1,29.2c-0.5-0.2-1-0.2-1.5-0.1c-0.3,0.1-0.4,0.4-0.3,0.6C201.8,30.6,202.4,30.4,203.1,29.2c1.3-0.1,2.1-0.7,2.4-1.8
		c0.1-0.3,0-0.6-0.3-0.9c-0.7-0.7-1.6-1-2.6-0.9c-0.6,0-1,0.2-1.3,0.6c-0.5,0.6-0.3,1.2,0.8,1.7C202.8,28.3,203.1,28.7,203.1,29.2
		L203.1,29.2z M188,31.4c-0.2,0.7,0.4,1.3,1.1,1.2c2-0.3,2.8-0.9,2.3-1.9c-0.4-0.7-0.9-1-1.7-0.9C188.8,29.8,188.2,30.3,188,31.4
		L188,31.4z M203.9,35c-1.9-0.2-2.2,0-0.8,0.5c1.3,0.5,1.8,0.5,1.5-0.1C204.6,35.3,204.3,35.1,203.9,35z"/>
	<path class="st1" d="M65.6,40.6c0.5-0.4,0.9-0.8,1.1-1.4c0.1-0.3,0.4-0.5,0.6-0.7c1-0.7,0.9-1.2-0.2-1.5c-0.4-0.1-0.7-0.2-0.8-0.4
		c-0.9-1-1.2-2.2-0.9-3.8c0.2-0.9-0.2-1.2-1-0.9c-1.5,0.6-3.1,1-5,1.3c-1.2,0.2-1.6,0-1.3-0.6c0.1-0.2,0.3-0.4,0.7-0.6
		c1.4-0.7,2.9-1.3,4.4-1.7c3.3-1,5.6-3.2,6.7-6.4c0.3-0.8,0.1-1.1-0.4-0.7c-0.6,0.4-1,0.9-1.2,1.5c-0.7,1.9-1.6,2.5-2.7,1.9
		c-1.7-0.9-3-2.5-4-4.6c-0.4-0.9-0.1-1.2,0.8-0.8c1.7,0.6,3.1,0.6,4.1-0.2c3.6-1.9,6-0.9,6.9,3.1c0.1,0.3,0.3,0.6,0.7,0.7
		c1.5,0.4,2.1,0.9,1.7,1.5c-0.2,0.3-0.6,0.5-1.3,0.6c-2.6,0.6-4.6,2-6.1,4.2c-0.3,0.4-0.2,0.6,0.3,0.5c1.4-0.1,2.2,0.3,2.3,1.2
		c0.1,0.9,0.5,1.8,1.2,2.3l3.9,3c0.2,0.2,0.6,0.2,0.8,0c1-0.8,1.4-1.7,1.2-2.7c-0.1-0.8-0.5-0.9-1-0.3c-0.7,0.8-1.3,1-1.9,0.7
		c-0.4-0.2-0.6-0.7-0.8-1.4c-0.4-1.8-0.4-3.6,0-5.5c0.1-0.4,0.2-0.4,0.3,0c0.4,0.9,0.7,2,0.7,3c0,0.3,0.2,0.5,0.5,0.5
		c1-0.1,2.1,0.2,3.2,0.8c0.3,0.2,0.6,0.2,1,0.2c2.5,0,3.3,0.8,2.5,2.3c-0.7,1.2-1,1.9-1,1.9c-0.5,1.6-0.1,3,1.1,4.1
		c0.2,0.2,0.5,0.3,0.9,0.3c1.8-0.1,3,0.1,3.7,0.5c1,0.6,1.2,1.3,0.7,2.2c-0.1,0.2-0.4,0.4-0.8,0.4h-3c-0.7,0-1.3,0.7-1.1,1.4
		c0.3,1.2,0.1,1.9-0.7,2.3c-0.4,0.2-0.7,0.3-0.8,0.4c-2.6,1.5-4.9,1.2-6.9-0.9c-0.2-0.2-0.5-0.3-0.8-0.1c-3,1.6-5.9,3.2-9,4.7
		c-0.2,0.1-0.5,0.2-0.7,0.2c-1,0.1-1.1-0.2-0.3-1c0.7-0.7,1.4-1.1,2.3-1.3c1-0.2,1.2-0.7,0.5-1.5c-1.4-1.5-2.4-3.3-3.1-5.2
		c-0.3-0.9-0.4-1.8-0.1-2.6c0.2-0.9,0.7-1.7,1.2-2.5c0.2-0.3,0.6-0.4,0.8-0.2c0.1,0.2,0,0.4-0.2,0.8c-0.2,0.3-0.3,0.6-0.2,1
		C65,40.7,65.4,40.7,65.6,40.6L65.6,40.6z M71.4,41c0.8,0.2,1.5-0.5,1.8-1.5c0.2-1-0.2-1.9-1-2.1c-0.8-0.2-1.5,0.5-1.8,1.5
		C70.2,40,70.6,40.9,71.4,41L71.4,41z M76.4,43.5c-0.5,0.7-0.5,1-0.1,1c0.3,0,0.5-0.3,0.6-0.6c1-3.4,0.9-3.7-0.3-0.7
		C76.6,43.3,76.5,43.4,76.4,43.5L76.4,43.5z M67.5,43.6c-0.2,0.5-0.1,0.7,0.3,0.5c0.2-0.1,0.4-0.3,0.5-0.5c0.4-0.9,0.2-1-0.5-0.4
		C67.6,43.3,67.5,43.4,67.5,43.6L67.5,43.6z M78.3,45.8c-1.4,3-0.8,3.7,1.8,2.1c0.3-0.2,0.4-0.5,0.4-0.8c0-1.4-0.5-2-1.5-1.9
		C78.7,45.3,78.5,45.5,78.3,45.8L78.3,45.8z M70,48.6c0.2-0.2,0.1-0.7-0.3-1.2c-0.4-0.4-0.9-0.6-1.2-0.4c-0.2,0.2-0.1,0.7,0.3,1.2
		C69.2,48.7,69.8,48.8,70,48.6z"/>
	<path class="st1" d="M157.4,27.6c-0.4,0.8-0.4,1.6-0.2,2.5c0.1,0.3,0.4,0.5,0.7,0.5c1.1,0,2.2,0.2,3.3,0.5c0.8,0.2,1.3,0.6,1.6,1.1
		c0.4,0.7,0.2,1.3-0.4,1.9c-0.2,0.2-0.5,0.3-0.9,0.2c-4-0.6-8-0.3-11.9,0.7c-1.1,0.3-2,0.3-2.7,0.1c-1.1-0.4-1.8-1-2.2-1.9
		c-0.6-1.5-0.1-2.2,1.5-2.3l4.6-0.2c1.7-0.1,1.9-0.6,0.4-1.7c-2.2-1.6-3.7-3.3-4.3-5.2c-0.2-0.5,0.2-1,0.7-1c3.4,0.2,6.8,0,10.3-0.7
		c0.3-0.1,0.6,0,0.8,0.3c1.9,1.9,1.6,3.4-0.8,4.5C157.8,27.2,157.6,27.4,157.4,27.6z"/>
	<path class="st2" d="M188,31.4c0.3-1.1,0.8-1.6,1.7-1.7c0.8-0.1,1.3,0.3,1.7,0.9c0.5,1-0.2,1.6-2.3,1.9
		C188.4,32.7,187.8,32,188,31.4z"/>
	<path class="st1" d="M232.1,40.9c0.9-1.3,1.4-1,1.5,1c0,0.3,0.2,0.5,0.5,0.6c2.6,0.4,3.4-0.6,2.5-2.9c-0.1-0.3-0.2-0.7-0.1-0.9
		c0.4-1.5,1.1-1.8,2.2-0.9c0.3,0.2,0.7,0.8,1.1,1.5c0.6,1.1,1.4,2,2.4,2.8c0,0,0.6,0.3,1.7,0.8c1,0.4,1.4,1.5,1.2,3.1
		c-0.1,0.5-0.4,0.8-0.9,0.9c-1.9,0.2-3.5,0.2-4.8,0c-1.7-0.2-2.1,0.2-1.4,1.2c0.2,0.3,0.5,0.4,0.8,0.5c1.8,0.1,2.8,0.4,3.1,0.8
		c0.2,0.3-0.2,0.9-1.2,1.5c-3,2-4.8,5-5.3,8.7c-0.1,0.7,0.2,1.4,0.8,1.8c2,1.3,4,1.9,6.1,1.9c0.3,0,0.6-0.1,0.9-0.4
		c0.7-0.8,1-1.8,1-2.9c0-0.6,0-1.1,0.1-1.4c0.3-1.1,0.8-1.2,1.6-0.2c0.2,0.3,0.3,0.6,0.2,0.9l-1.1,5.5c-0.1,0.6-0.7,1-1.4,1
		c-2.4-0.1-4.5-0.5-6.3-1.3c-3.6-1.5-4.5-4.1-2.6-7.7c0.4-0.8,0.3-1-0.4-0.6c-0.1,0.1-0.3,0.2-0.4,0.4c-0.9,1.4-2,2.3-3.2,2.7
		c-1.4,0.5-2,0.2-1.9-1.1c0-0.3,0.2-0.6,0.5-0.8c1.5-1.2,2.9-2.4,4.3-3.7c1.1-1,1.2-1.3,0.1-0.8c-0.4,0.2-1.1,0.6-2,1.2
		c-0.5,0.3-1,0.5-1.6,0.6c-1,0.2-1.6-0.1-1.6-0.7c0-0.3,0.1-0.6,0.4-0.9c1.5-1.5,3-2.6,4.3-3.2c0.7-0.3,0.9-0.6,0.5-0.9
		c-0.2-0.1-0.5-0.2-0.9-0.2c-2,0.2-2.6-1.2-1.9-4.2c0.4-1.6,0.1-1.7-0.8-0.4c-0.6,1-1.3,2.3-1.9,4.1c-0.3,1-1.4,1.5-2.3,1.3
		c-2-0.5-3,0.1-2.8,1.8c0.2,2.5-0.6,4.5-2.5,6c-1.1,0.9-1.5,0.7-1.2-0.7c0.8-3.2,1.8-6.4,3-9.5c0.7-1.8,1.7-3.2,3.1-4
		c1.6-1,2.2-2.5,1.7-4.5c-0.2-0.9-0.1-1.8,0.5-2.6c0.1-0.2,0.5-0.3,0.7-0.1c1.6,1.3,2.8,2.8,3.6,4.7
		C231.7,41.2,231.9,41.2,232.1,40.9L232.1,40.9z M243.2,44.7c0-0.3-0.3-0.6-0.7-0.5l-8,0.8c-0.3,0-0.6,0.3-0.5,0.7l0,0.4
		c0,0.3,0.3,0.6,0.7,0.5l8-0.8c0.3,0,0.6-0.3,0.5-0.7L243.2,44.7z"/>
	<path class="st1" d="M22.1,46.7c-0.8-0.6-1.4-1.3-2-2.1c-1-1.5-0.7-2.4,0.9-2.7c2.8-0.6,4.4,0.4,4.8,3c0,0.3,0,0.7-0.2,0.9
		C24.7,47.5,23.5,47.8,22.1,46.7z"/>
	<path class="st1" d="M29.3,47.7l-1.5,7.5c-0.3,1.6-0.5,1.6-0.4,0c0.1-2.6,0.6-5.1,1.5-7.5c0.1-0.3,0.1-0.6,0.1-0.9
		c-0.2-1.1,0.3-1.7,1.6-1.8c1.3-0.1,2.4-0.6,3.3-1.4c2.2-1.9,3.6-2,4.4-0.2c0.2,0.5,0.3,1.3,0.2,2.3c-0.1,0.8-0.1,1.6-0.1,2.4
		c0,1,0.4,1.2,1.2,0.7c0.5-0.3,1.1-0.5,1.7-0.5c0.7,0,1.1,0.3,1.3,0.9c0.4,0.9-0.3,1.5-2,2c-1.1,0.3-2.1,0.9-2.9,1.8
		c-0.9,1-2.3,1.7-4.2,2.3c-0.3,0.1-0.6,0.1-0.9-0.1c-2.4-1-2.3-2.1,0.4-3.2c1.7-0.7,1.9-1.5,0.6-2.2c-0.5-0.3-1-0.6-1.4-1
		c-0.7-0.7-1.5-1.1-2.4-1.4C29.6,47.3,29.4,47.4,29.3,47.7z"/>
	<path class="st3" d="M243.3,45.2c0,0.3-0.2,0.6-0.5,0.7l-8,0.8c-0.3,0-0.6-0.2-0.7-0.5l0-0.4c0-0.3,0.2-0.6,0.5-0.7l8-0.8
		c0.3,0,0.6,0.2,0.7,0.5L243.3,45.2z"/>
	<path class="st4" d="M510.6,141.1c0.2,1.2,0.6,1.3,1.3,0.4c4.3-5.4,9.4-10.2,15-14.4c0.9-0.7,1.6-1.5,2-2.6c0.6-1.4,0.2-1.9-1-1.8
		c-0.8,0.1-1.2,0.2-1.3,0.2c-5.4,0.3-7.6-2.4-6.6-8.2c1-6.2,2.4-11.9,4-17c0.5-1.7-0.1-2.5-1.9-2.2c-9.2,1.3-18,1.8-26.3,1.6
		c-1.5,0-2.7-0.3-3.7-0.7c-1.2-0.5-2.3-1.2-3.3-2.1c-1.3-1-1.2-1.9,0.3-2.6c2.3-1.1,4.8-1.8,7.6-2c8.4-0.5,18-1.2,28.7-1.9
		c0.7,0,1.4-0.5,1.6-1.1l1.9-4.4c0.9-2.1,1.5-2.1,1.9-0.2c0.7,3.3,2.4,4,5.3,1.9c1.9-1.4,3.9-2.6,6-3.6c1.5-0.8,2.7-1.7,3.7-2.8
		c1.9-2.2,3.9-4.3,5.8-6.5c0,0,0.7-0.7,1.9-1.9c1.4-1.4,2.3-2.8,2.7-4.4c0.5-1.7-0.2-2.5-2-2.3c-2.1,0.2-3.9,0.8-5.5,1.7
		c-1.2,0.7-2.4,2-3.7,4c-1.7,2.5-3,4.4-4.1,5.8c-1,1.2-2.2,1.9-3.7,2.1c-1.1,0.1-2.4-0.1-3.9-0.6c-3.7-1.3-6.6-3.5-8.7-6.6
		c-1.6-2.3-3-5.1-4.2-8.2c-1.4-3.7-1.9-7.5-1.2-11.7c0-0.3-0.1-0.6-0.3-0.8c-0.7-0.8-1.3-1.6-1.6-2.7c-0.4-1.1,0-1.4,1.1-1.2
		c2.8,0.7,5.4,2.2,7.7,4.4c1.5,1.5,3.4,2.3,5.5,2.6c3.3,0.4,6.8,0,10.5-1.1c1.8-0.5,3.9-0.9,6.3-1.2c2.4-0.3,4.6-0.2,6.3,0.3
		c3.8,1,7,3.2,9.5,6.5c4.2,5.3,5.1,11.2,2.7,17.7c-0.4,1.2-0.7,2.4-0.9,3.7c0,0.3,0.2,0.5,0.4,0.5l8.2-0.8c0.8-0.1,1.4,0.4,1.5,1.2
		c0.2,1.5,0.9,3,2.1,4.5c0.3,0.4,0.3,1-0.1,1.4c-1.6,1.5-3.5,2.4-5.6,2.6c-0.8,0.1-2.7-0.2-5.8-0.9c-4.7-1.1-9-0.4-13,2.1
		c-2.5,1.5-4.2,2.5-5.2,2.9c-2,0.8-3.9,1.5-5.9,2.3c-3,1.1-4.9,2.3-5.8,3.5c-1.4,2-1.7,4.4-1,7.4c0.2,0.7,1,1,1.5,0.5
		c0.6-0.6,1.2-1.2,1.7-1.7c0.7-0.8,1.3-1.3,1.8-1.5c1.3-0.6,2.5-0.4,3.6,0.6c1.5,1.4,2.2,3.4,1.9,6.1c-0.3,2.7-0.6,5.3-0.9,7.9
		c0,0.3-0.2,0.6-0.4,0.8c-2.8,3-2,4.6,2.5,4.7c2.5,0.1,3.6,1.4,3.3,4c0,0.3,0.2,0.5,0.4,0.5c1,0.1,1.9,0.3,2.8,0.6
		c0.9,0.3,1.6,0.8,2.3,1.5c2.8,3.2,4.7,6.9,5.7,11.1c0.4,2,0.9,2,1.4,0l2.6-9.7c0.1-0.3-0.1-0.5-0.3-0.7l-3.3-2.1
		c-0.2-0.2-0.4-0.4-0.5-0.8c-0.9-3.1-1.2-6.3-0.8-9.4c0.1-0.9,0.8-3.3,2-7.4c1.1-3.7,1.6-7.5,1.4-11.4c0-0.4,0.1-0.7,0.3-0.9
		c1.1-1.4,2.5-2.2,4.3-2.5c0.5-0.1,0.9,0.2,1,0.7c0.7,3.5,0.6,6.7-0.5,9.8c-1.2,3.6-1.8,6.9-1.9,9.8c0,1.8,0.6,2.1,2,0.9
		c1.3-1.2,2.7-1.9,4.2-2.1c1.4-0.2,2.8,0.2,4.1,1.2c2.7,2.1,4.3,5.3,4.8,9.4c0.2,2.1,1.2,2.5,2.8,1.2c1.4-1,3.2-2.4,5.3-4
		c0.7-0.6,1.3-0.8,1.6-0.7c0.6,0.1,0.7,1,0.4,2.6c-0.1,0.4,0.1,0.8,0.4,1.1c0.6,0.5,1,1.1,1.3,2c0.1,0.3,0.3,0.6,0.6,0.7
		c0.6,0.2,1.2,0.4,1.9,0.6c1.7,0.5,2.4,1.4,2,2.6c-0.2,0.5-0.7,1.3-1.6,2.2c-3.6,3.7-6.9,7.5-9.9,11.3c-0.7,0.9-1.1,1.9-1.2,3
		c-0.6,5.9-0.5,11.5,0.4,16.6c0,0.3,0.3,0.6,0.6,0.7c9.5,2.2,17.7,5.7,24.8,10.6c0.6,0.5,0.9,1.3,0.6,2.1l-3,7.4
		c-0.2,0.5-0.8,0.7-1.2,0.5c-6.9-3.1-13.8-5.5-20.9-7c-0.3-0.1-0.5,0.1-0.6,0.4c-0.4,2.1-0.7,4.1-0.7,6.3c-0.1,2-0.4,3.6-1,4.6
		c-0.9,1.7-2.1,3.2-3.6,4.4c-1.1,0.9-2.5,1.4-4.2,1.6c-5,0.5-10,0.9-15,1.2c-2.2,0.1-3.4,0.2-3.5,0.2c-1.4-0.2-2.3-1.1-2.7-2.8
		c-0.1-0.3-0.3-0.6-0.5-0.7l-4.5-2.4c-1-0.5-1.4-1.4-1.3-2.5c0.2-1.7-0.8-2.4-3-2.1c-1.4,0.2-1.7-0.2-0.9-1.3l1.9-2.6
		c0.6-0.9,0.4-1.4-0.6-1.4c-5.2-0.5-10.1,0.6-14.6,3.3c-0.8,0.5-1.8,0.6-2.7,0.4c-2.3-0.5-4.6-0.3-6.8,0.7c-3.9,1.7-8,2.8-12.2,3.5
		c-2.3,0.4-4.6,0.9-6.8,1.7c-4.8,1.6-9.8,2-14.8,1c-1.3-0.2-1.5-0.8-0.6-1.8c2.3-2.4,5.2-3.8,8.7-4.2c3.6-0.4,7.2-1,10.7-1.8
		c0.8-0.2,1.2-1,0.9-1.7c-0.8-2.3-1.8-4.6-2.9-6.9c-3.9-8.3-5.8-17-5.7-26.1c0-2.6,0.5-5,1.6-7.4c1.4-3.2,2.8-5.7,4.3-7.5
		c2.3-2.8,5.1-4.7,8.6-5.7c2.2-0.7,2.4-0.2,0.7,1.2C511.5,132.3,509.9,136.4,510.6,141.1L510.6,141.1z M574.7,122l-7.5,6.6
		c-0.3,0.3-0.5,0.5-0.6,0.8c-1.4,3.5-2.2,6.9-2.6,10.2c-0.2,1.6,0.4,1.9,1.7,1c2.4-1.8,4.6-3.8,6.6-6.1c1.6-1.8,2.6-3.7,2.9-5.7
		c0.4-2.2,0.3-4.4-0.3-6.6C574.9,121.9,574.8,121.9,574.7,122L574.7,122z M534.8,137.6c-0.8,1.1-1,2.2-0.4,3.5
		c1.6,3.8,4.5,6.3,8.8,7.6c1.3,0.4,2.2,0,2.7-1.3c1.7-4.4,2.8-8.9,3.4-13.5c0.2-1.6-0.1-3.1-0.8-4.4c-0.3-0.5-0.9-0.7-1.5-0.4
		c-1.7,0.9-3.4,1.8-5.1,2.6C539.3,132.8,537,134.8,534.8,137.6L534.8,137.6z M522.3,148.3c-2.7,2.6-4.8,5.3-6.3,8
		c-0.4,0.7-0.4,1.6,0.1,2.4c0.1,0.3,0.4,0.4,0.7,0.3c2-0.5,4.1-1.4,6.2-2.7c0.7-0.4,1-1.2,0.9-2l-0.9-5.8
		C523,148,522.7,148,522.3,148.3L522.3,148.3z M556.5,164c-1.3,1.8-1.6,3.9-0.9,6.4c0.1,0.3,0.4,0.4,0.5,0.2c1.8-1.2,3-2.9,3.8-4.9
		c0.7-2.1,1.9-3.8,3.6-5.2c1.6-1.3,3.1-2.7,4.6-4.1c1.2-1.1,1.1-1.8-0.1-2c-0.3-0.1-0.6,0-0.9,0.2c-2.4,1.4-4.5,3.2-6.4,5.1
		C558.2,162.1,556.8,163.5,556.5,164L556.5,164z M533.2,160.3c-0.1,1.2,0,2.5,0.5,4c0.2,0.5,0.4,0.6,0.8,0.2l5.6-6.2
		c1.6-1.8,1-2.5-1.7-2.2c-1.3,0.1-2.5,0.6-3.5,1.3C533.9,158.1,533.3,159.1,533.2,160.3L533.2,160.3z M544.7,173.1
		c-0.2,0.4,0,0.9,0.4,0.9c3,0.7,4.3-0.5,3.9-3.4c-0.1-0.4-0.5-0.7-0.9-0.5C546.9,170.4,545.7,171.4,544.7,173.1L544.7,173.1z
		 M517.4,172.1l2.1,7.3c0.1,0.3,0.4,0.4,0.7,0.4l4.6-0.8c1.3-0.2,1.8-1,1.4-2.2c-1.3-4.3-4.1-6-8.3-5.2
		C517.5,171.5,517.3,171.8,517.4,172.1L517.4,172.1z M568,172.3c-3.5,3.6-6.3,7.3-8.3,11.2c-0.2,0.5-0.8,1.2-1.7,2.2
		c-1.1,1.2-0.8,2.4,1,3.4c0.3,0.2,0.6,0.2,0.9,0.2c1.9-0.2,4.5-0.2,7.8-0.2c1.6,0,3-0.5,4.1-1.5c0.9-0.8,1.4-2,1.7-3.6
		c0.3-2.6,0.4-5.2,0.1-7.8c-0.1-1.3-0.5-2.2-1.1-2.9c-0.7-0.8-1.7-1.3-2.9-1.5C569,171.8,568.4,171.9,568,172.3z"/>
	<path class="st5" d="M232.3,73.2c0.5,0.3,0.8,0.9,0.8,1.5c0,29.1,0,58,0,86.8c0,8.8-0.3,15.4-0.9,20c-1.9,14.8-6.5,28.7-13.7,41.7
		c-3.3,6-7.2,11.5-11.4,16.4c-7.8,9-17.1,16.4-27.7,22.3c-7,3.9-14.2,7.5-21.5,10.7c-7.3,3.2-14.8,6.8-22.3,10.9
		c-0.8,0.4-1.8,0.4-2.6,0c-6.8-3.8-14-7.2-21.4-10.4c-5.8-2.5-13.1-6.1-21.6-10.9c-26.9-15-43.9-37.5-51.2-67.6
		c-1.4-6-2.5-12-3.1-18.1c-0.4-4.1-0.6-10.2-0.5-18.3c0.2-27.3,0.3-54.9,0.2-83c0-0.9,0.5-1.7,1.3-2.2c14.4-8.1,29.7-14.1,46-17.9
		c10.8-2.6,21.7-4.5,32.8-5.8c24.3-2.8,48.4-1.1,72,5C203.3,58.3,218.2,64.6,232.3,73.2L232.3,73.2z M230.6,74.3
		c-12.5-7.3-25.5-13-39.1-16.9c-22.4-6.5-45.3-8.8-68.6-7c-10.7,0.8-22.3,2.6-34.7,5.2C70.7,59.3,54,65.5,38,74.3
		c-0.5,0.3-0.8,0.8-0.8,1.4c0,25-0.2,50.2-0.3,75.5c-0.1,9.6,0.2,17.9,0.8,24.7c0.8,9,2.8,18.4,6.2,28.2
		c6.6,19.5,17.8,35.4,33.7,47.5c4.4,3.4,10.1,7,16.9,10.6c7.3,3.9,15.3,7.8,23.9,11.5c4.3,1.8,9.5,4.5,15.6,7.9
		c0.3,0.2,0.6,0.2,0.9,0c7.1-3.8,14.3-7.4,21.7-10.6c7.3-3.2,14.5-6.8,21.5-10.7c22.6-12.6,38.2-31.1,46.8-55.5
		c2.5-7,4.2-14.1,5.3-21.4c0.7-4.7,1.1-11.4,1.1-19.9c0-29.4,0-58.8,0-88.1C231.1,74.9,230.9,74.5,230.6,74.3z"/>
	<path class="st4" d="M1044.6,70.9c1.8-1,3.7-2,5.5-3c2.1-1.2,4.3-1.3,6.6-0.1c2.1,1.1,3.6,0.5,4.4-1.7c0.5-1.4,1.6-3.1,3.3-5.2
		c0.2-0.2,0.5-0.4,0.8-0.4l11.1-1.1c1-0.1,2,0.4,2.5,1.2c3.9,6.9,5.2,14.1,3.9,21.7c-0.4,2.2-0.6,3.3-0.6,3.3
		c-0.8,5.7-1.1,11.2-1,16.6c0,0.6,0.6,1.1,1.2,1c3.6-0.5,6.6,0.3,9,2.4c1.2,1,2,1.9,2.6,2.6c0.5,0.7,0.9,1.5,1.2,2.3
		c0.2,0.8,0.1,1.6-0.2,2.5c-0.6,1.3-1.3,2.6-2.2,3.7c-0.2,0.2-0.5,0.4-0.8,0.5c-5,1-9.8,1.7-14.3,1.9c-1.4,0.1-2.2,0.8-2.4,2.3
		c-0.2,2.2-1,3.5-2.5,4c-0.5,0.2-1.8,0.1-4-0.3c-1.3-0.2-2.7-0.2-4,0c-0.3,0-0.4,0.3-0.3,0.6c0.6,1.6,1,3.1,1.3,4.8
		c0.2,1.4,0,3-0.5,4.8c-1.1,3.4-2.1,6.8-3,10.2c-0.1,0.4,0,0.7,0.3,1l5.7,5.7c0.7,0.7,1.9,0.8,2.6,0c1.1-1.3,2.6-2.3,4.3-2.9
		c0.9-0.3,2,0.1,2.4,1c1.1,2.3,1.7,4.3,1.7,6.1c0,0.6-0.4,1.1-1,1.3l-7.8,1.8c-0.7,0.1-1.1,0.8-1.1,1.5c0.1,4.8,0,9.5-0.3,14.2
		c-0.3,4.6-2,8.3-5.3,11.1c-0.9,0.8-2.2,1.4-3.9,1.9c-0.9,0.3-1.9,0.6-2.8,1c-1.1,0.5-2.1,0.8-2.8,1c-3,0.7-6.2,0.9-9.6,0.7
		c-1.7-0.1-3.3,0.1-4.9,0.6c-1.9,0.6-4.2,0.9-6.7,1c-0.5,0-0.9-0.5-0.8-1c0.3-1,0-1.6-1-1.8c-2.8-0.6-5.6-1-8.5-1
		c-0.3,0-0.3-0.1,0-0.2c0.7-0.3,1.5-0.5,2.2-0.8c0.7-0.3,1.5-0.5,2.2-0.7c7.2-1.4,14.4-3.2,21.5-5.1c2.7-0.7,4.5-1.8,5.5-3
		c1.9-2.3,2.5-5.6,1.8-9.7c-0.1-0.6-0.7-1-1.2-0.9c-2.6,0.5-4.9,1.1-6.9,1.8c-4.2,1.4-8.4,1.8-12.7,1.4c-2-0.2-2.3-1.1-1-2.6
		c1.9-2.1,4.1-3.9,6.5-5.3c1.2-0.7,3-1.4,5.5-2.3c2.9-1,4.7-1.7,5.5-2.2c4.7-3,3.5-4.5-3.7-4.7c-1.7-0.1-2.6-0.9-2.8-2.6
		c-0.1-1.2,0.6-2.7,2.1-4.6c2.1-2.6,4.3-5.2,6.5-7.7c0.2-0.3,0.4-0.6,0.4-0.9c0.2-1.6-0.5-1.9-2-1c-2.9,1.7-6.7,4.5-11.3,8.2
		c-3.9,3.2-6.3,2.7-7-1.2c-0.3-1.7-0.2-3.5,0.4-5.4c1.4-4.6,4.5-8.1,9.1-10.3c5.4-2.6,10.3-4.9,14.9-6.7c2-0.8,3.3-1.6,4-2.5
		c1.1-1.5,1.3-3.2,0.7-5.2c-0.2-0.5-0.8-0.8-1.3-0.6c-5.9,2.2-11.6,4.3-17,6.3c-4.2,1.5-9.2,4.3-14.9,8.2
		c-6.3,4.3-12.6,9.1-18.8,14.4c-0.2,0.2-0.3,0.5-0.2,0.8l1.4,4.5c0.1,0.3-0.1,0.6-0.4,0.8l-5.5,3.4c-0.3,0.2-0.6,0.4-0.7,0.6
		c-0.8,0.9-1.6,0.8-2.3-0.4c-1.4-2.2-2.4-4-2.8-5.2c-2.7-7.3-4-14-4-20c0-1.5,0.5-3.2,1.4-4.9c0.8-1.4,1.9-2.6,3.3-3.6
		c3.6-2.5,7.6-4.2,12.1-5.1c0.6-0.1,0.8-0.8,0.5-1.2c-0.5-0.7-0.9-1.4-1.2-2.1c-0.3-0.6-0.4-1.4-0.5-2.3c-0.1-1.5-0.3-3-0.7-4.5
		c-0.1-0.3-0.3-0.5-0.6-0.7c-0.7-0.6-1.3-1.5-1.8-2.8c-1.1-3.4-1.9-6.2-2.3-8.5c-0.3-2-0.6-3.3-0.8-3.9c-0.5-1.3-1.1-2.5-1.8-3.6
		c-0.5-0.7-0.2-1.6,0.6-1.8l4.6-0.7c0.4-0.1,0.7-0.4,0.7-0.7c-0.2-1.3,0.2-1.7,1.2-1c0.7,0.5,1.4,0.8,2.2,1.1
		c1.7,0.5,2.6,1.6,2.7,3.3c0.1,2,0.2,3.1,0.2,3.1c0.7,2.5,2.3,4.4,4.7,5.7c0.2,0.1,0.5,0,0.6-0.3c0.3-1.5,0.5-3.4,0.5-5.4
		c0-9.3,0.1-15,0.2-17c0.1-1,0.7-1.6,1.9-1.9c0.3-0.1,0.6,0,0.9,0.2c1.7,1.1,2.6,2.5,2.6,4.2c0.2,2.8,0.9,5.5,2.3,8
		c0.4,0.8,1.5,1,2.2,0.3l4.9-4.8c0.2-0.2,0.4-0.6,0.3-0.8l-2.5-20.7c0-0.3-0.3-0.6-0.6-0.6l-2.2-0.2c-0.3,0-0.4-0.2-0.4-0.5
		c0.7-2.6,2.4-4.1,5-4.3c1.1-0.1,1.9,0.2,2.5,0.9c0.4,0.5,0.7,1.1,0.8,1.9c0.1,0.9,0.3,1.5,0.5,1.9c1.4,3.2,2.1,5.5,2.1,7.1
		c-0.1,3.3,0.3,6.5,1.2,9.7C1044.1,70.9,1044.4,71,1044.6,70.9L1044.6,70.9z M1057.3,75.7c-0.3-0.2-0.2-0.6,0.2-1.1
		c0.6-0.8,0.7-1.6,0.5-2.4c-0.1-0.3-0.4-0.4-0.7-0.3c-4.6,1.2-8.3,3.8-11.2,7.6c-0.2,0.2-0.3,0.4-0.4,0.6c-0.4,0.9-0.1,1.1,0.8,0.5
		c1.9-1.1,4.1-1.9,6.6-2.3c0.7-0.1,1.4,0.3,1.7,0.9l1.7,4c0.1,0.3,0.4,0.5,0.7,0.5l14.5,0.2c0.3,0,0.6-0.2,0.7-0.5l1.9-9.3
		c0.2-0.9-0.5-1.8-1.5-1.8c-1.2-0.1-2.3-0.5-3.2-1.2c-2.1-1.8-4.3-3.3-6.7-4.5c-0.3-0.1-0.6,0-0.7,0.2l-4.4,8.7
		C1057.8,75.7,1057.5,75.8,1057.3,75.7L1057.3,75.7z M1047.6,86.1c-0.6,2.6-0.8,6.2-0.5,11c0,0.3,0.1,0.5,0.2,0.6
		c0.3,0.4,0.6,0.2,0.8-0.4c1.5-4,2.7-6.8,3.5-8.7c0.8-1.7,0.5-3.1-0.6-4.4c-0.2-0.2-0.5-0.3-0.9-0.3
		C1048.6,84.3,1047.8,85,1047.6,86.1L1047.6,86.1z M1070.2,89.3c0.1-0.6,0-1.1-0.4-1.5c-0.2-0.2-0.5-0.4-0.9-0.4l-9.9-0.2
		c-0.5,0-0.8,0.3-0.8,0.8l0.3,5.3c0.1,1.6,1,2.1,2.8,1.7c3.1-0.8,5.8-2.3,8.1-4.4C1069.8,90.1,1070.1,89.7,1070.2,89.3L1070.2,89.3z
		 M1027.9,105.6c0.9-0.2,0.9-4.1,0-8.8c-0.9-4.7-2.2-8.4-3.1-8.2c-0.9,0.2-0.9,4.1,0,8.8C1025.6,102.1,1027,105.7,1027.9,105.6
		L1027.9,105.6z M1036.8,93.1c0,4.9,0.1,9.8,0.1,14.7c0,0.3,0.1,0.7,0.3,0.9c1.1,1.3,1.9,1.3,2.6,0.2c0.3-0.5,0.5-1.3,0.5-2.2
		c0.1-4.3,0-9.1-0.4-14.5c-0.1-1.1-0.5-2.1-1.2-3c-0.4-0.5-0.9-0.7-1.6-0.7c-0.3,0-0.5,0.2-0.4,0.5
		C1036.8,89.7,1036.8,91.1,1036.8,93.1L1036.8,93.1z M1049.5,96.8c-0.8,1.2-1.4,2.5-1.9,3.8c-0.2,0.6-0.3,1.2-0.2,1.6
		c0.1,0.9,0.7,1.2,1.6,1.1c0.3,0,0.6-0.2,0.7-0.5c0.7-1.2,0.9-2.4,0.8-3.8c0-0.4,0-0.8,0-1.2C1050.6,95.9,1050.3,95.5,1049.5,96.8
		L1049.5,96.8z M1067.7,102.5c0.3-0.5,0-1.2-0.6-1.3c-3.7-0.9-4.5-0.2-2.4,2.2c0.2,0.3,0.5,0.4,0.8,0.4
		C1066.5,103.9,1067.2,103.4,1067.7,102.5L1067.7,102.5z M1058.6,102.1c-0.5,1.2-0.6,2.6-0.4,4.3c0.1,0.4,0.4,0.6,0.7,0.6
		c4.9-0.6,5.6-2.4,2.1-5.5C1059.9,100.5,1059.1,100.7,1058.6,102.1L1058.6,102.1z M1078.3,112.3c-1.7,2.5-1,3.7,2.1,3.6
		c2.2-0.1,4.7-0.8,7.6-2.2c1.7-0.9,2.2-1.8,1.4-2.9c-0.4-0.6-1.1-1-2.1-1.4C1083.6,108,1080.6,109,1078.3,112.3L1078.3,112.3z
		 M1005.6,120c-0.6,0.7-0.9,1.7-0.8,2.6c0.5,4.2,1.5,7.2,3.2,8.9c1.8,1.8,3.6,2,5.7,0.5c3.6-2.6,6.9-5.4,9.9-8.5
		c0.2-0.2,0.2-0.5,0.1-0.8c-2-3-4.5-5.6-7.3-7.8c-0.2-0.2-0.6-0.3-0.9-0.2C1011.3,115.5,1008,117.3,1005.6,120z"/>
	<path class="st1" d="M25.9,58.3c0.7,0.4,1.3,1.3,1.5,2.6c0.4,1.6,0.1,2.7-0.7,3.4c-0.2,0.2-0.6,0.1-0.7-0.1
		c-2.8-3.6-4.5-7.6-5.2-12.1c0-0.3,0.2-0.5,0.4-0.5c1.7,0.1,3.3,0.7,4.6,1.8c0.3,0.2,0.4,0.5,0.4,0.8c-0.1,0.7-0.4,1.2-1,1.6
		c-0.3,0.2-0.5,0.5-0.4,0.7l0.4,1.2C25.2,57.8,25.5,58.1,25.9,58.3z"/>
	<path class="st6" d="M96.1,67.3l3.6-0.9c0.2-0.1,0.5-0.3,0.6-0.6l1.8-4.2c0.1-0.3,0.4-0.5,0.7-0.5l6-0.8c0.4,0,0.7,0,0.9,0.2l3.2,3
		c0.3,0.3,0.6,0.5,0.8,0.5c1.7,0.4,3.3,0.2,4.9-0.4c0.3-0.1,0.5-0.3,0.7-0.6l1.9-3.3c0.2-0.3,0.4-0.5,0.7-0.6
		c2.2-0.5,4.4-0.6,6.5-0.1c0.3,0.1,0.6,0.3,0.7,0.6c1.7,3.4,4.4,4.6,8.2,3.7c0.3-0.1,0.6-0.3,0.8-0.5l3.4-4.2
		c0.2-0.3,0.5-0.5,0.8-0.5l4.7,0.1c0.3,0,0.6,0.2,0.8,0.5l2.7,4.2c0.2,0.3,0.4,0.5,0.7,0.6c3.4,1.4,5.9,0.9,7.6-1.6
		c0.7-1.1,1.8-1.7,3.1-1.7c3.4,0,5.5,1,6.3,3.1c0.2,0.6,0.4,1,0.4,1c1.2,2.5,3.2,3.5,6.1,3.2c0.3,0,0.6-0.2,0.9-0.4l3.5-3.1
		c0.3-0.2,0.6-0.3,0.9-0.2l5.4,1.5c0.3,0.1,0.5,0.3,0.6,0.6c0.8,2.1,1.4,3.4,1.6,3.7c1.2,1.9,2.7,2.7,4.7,2.5
		c0.7-0.1,1.6-0.5,2.8-1.3c0.7-0.5,1.5-0.9,2.3-1.3c0.3-0.1,0.6-0.2,0.9-0.1c1.9,0.5,3.7,1.3,5.3,2.4c0.3,0.2,0.4,0.5,0.4,0.8
		c0,0.9,0.1,1.9,0.3,2.8c0.2,0.9,0.7,1.7,1.4,2.2c2.5,1.8,5.1,1.8,8,0c0.3-0.2,0.6-0.3,0.9-0.3c1.5,0.1,2.9,0.6,4,1.7
		c0.2,0.2,0.5,0.4,0.8,0.5c1.2,0.5,1.8,1.4,1.7,2.8c-0.1,0.9-0.1,1.4-0.1,1.4c0,30.7,0,61.4,0,92c0,3.4-0.2,6.7-0.6,9.7
		c-0.3,2.4-0.9,5.6-1.8,9.5c-4.6,20.6-14.9,37.3-30.8,50.3c-4.4,3.5-10,7.1-16.8,10.8c-7.6,4.1-15.4,7.7-23.4,11
		c-2.4,1-6.5,3-12.4,6.2c-0.3,0.1-0.6,0.1-0.9,0c-5.1-2.7-9-4.6-11.6-5.7c-14.1-5.9-24.8-11.2-32.1-15.9
		c-20.9-13.2-34.2-32.1-39.8-56.7c-1.7-7.4-2.5-14.4-2.6-21c-0.1-30.7-0.2-61.6-0.2-92.8c0-0.4,0.2-0.8,0.6-1l5-2.7
		c0.3-0.1,0.6-0.2,0.9-0.1c1.2,0.3,2.4,0.7,3.6,1.2c1.4,0.6,2.6,0.8,3.5,0.5c1.9-0.5,3.1-1.8,3.6-3.9c0.4-1.6,0.7-2.8,0.9-3.5
		c0.1-0.3,0.3-0.5,0.7-0.6l5.4-1.7c0.3-0.1,0.6,0,0.9,0.2l2.2,1.9c1.3,1.1,2.7,1.2,4,0.3c2.3-1.4,3.6-3.2,3.9-5.3
		c0.1-0.4,0.3-0.6,0.5-0.7l6.3-1.7c0.3-0.1,0.8,0,1.2,0.3l3.8,2.7C95.5,67.3,95.8,67.4,96.1,67.3L96.1,67.3z M90.4,165.1
		c0-0.3-0.1-0.5-0.3-0.7c6.7-2.7,13-6.1,19-10.1c0.9-0.6,0.8-0.9-0.2-1c-7.9-0.7-15.4-3.1-22.5-7.2c-1.6-0.9-1.5-1.6,0.3-2
		c6.2-1.5,12-3.7,17.6-6.6c5.5-2.9,10.3-6.9,14.6-12.1c0.7-0.8,0.5-1.3-0.6-1.4c-6.1-0.7-11.6-2.2-16.4-4.4c-0.8-0.4-1.7-1-2.6-1.9
		c-0.2-0.2-0.2-0.6,0.1-0.7c8.1-4.9,15.2-10.7,21.3-17.5c0.5-0.6,0.6-1.5,0.2-2.3l-4.2-7.1c-0.3-0.5-0.5-0.5-0.8,0
		c-7.6,13.9-17.9,24.9-30.9,33c-0.7,0.4-0.6,0.8,0,1.1c5.3,2.8,10.9,4.5,16.6,5c0.7,0.1,1,0.8,0.6,1.3c-2.2,3.2-4.9,6-8.1,8.1
		c-6.3,4.2-13.4,7.4-21.3,9.5c-1.2,0.3-1.2,0.8-0.2,1.3c6.6,3.6,13.4,5.7,20.6,6.5c1.1,0.1,1.2,0.5,0.3,1.1
		c-8.7,5.9-18.2,10.3-28.8,13.1c-0.4,0.1-0.4,0.3-0.1,0.5c6.8,4.5,14.4,6.9,22.7,6.9c3,0,5.2-0.2,6.8-0.8c0.3-0.1,0.4-0.2,0.5-0.4
		c0.1-0.3-0.1-0.5-0.8-0.6l0.2-0.4c11.7,1.7,23,0.2,33.8-4.5c0.6-0.3,1.2,0,1.5,0.6c0.7,1.7,0.9,3.4,0.7,4.9
		c-0.1,0.7,0.5,1.4,1.2,1.4l7.2,0c0.2,0,0.4-0.2,0.5-0.5l0.6-5.3c0.1-0.8,1.1-1.3,2-0.9c10.4,4.2,21.3,5.7,32.5,4.5l0,0.5
		c1.8,1.1,3.6,1.7,5.6,1.7c0.7,0,2.6-0.1,5.7-0.4c6.6-0.7,12.9-2.8,18.8-6.2c0.8-0.5,0.8-0.8-0.1-1.1c-9.9-2.5-19.3-6.8-28.3-12.9
		c-1-0.7-0.9-1.1,0.3-1.2c7.7-0.9,14.5-3.1,20.6-6.6c1-0.6,0.9-1-0.2-1.2c-10.9-2.2-20.4-7.5-28.5-15.9c-1.7-1.8-1.4-2.8,1.1-3.1
		c4.8-0.5,9.8-2.2,15.2-4.9c0.6-0.3,0.6-0.7,0.1-1c-13.2-8.3-23.5-19.3-30.9-33c-0.3-0.6-0.7-0.6-1,0l-4.1,7.4
		c-0.1,0.3-0.1,0.6,0,0.9c1.4,2.1,3.6,4.4,6.4,6.9c5.8,5.1,10.7,8.9,14.6,11.4l-0.6,0.5c-14.4-9.1-25.7-21.1-33.9-36
		c-0.2-0.3-0.4-0.3-0.5,0c-8.1,14.9-19.4,26.8-33.8,35.9c-0.4,0.2-0.4,0.5,0,0.7c5.7,2.9,11.8,4.7,18.2,5.3c0.9,0.1,1.5,1.1,1.1,1.9
		c-0.5,1.1-1.3,2.2-2.3,3.2c-4.3,4.7-9.4,8.4-15.2,11c-4.7,2.1-9.5,3.9-14.5,5.4c-1.2,0.4-1.2,0.8-0.1,1.4c7.2,3.7,15.1,6,23.6,6.9
		c0.7,0.1,0.8,0.3,0.2,0.7C104.9,158.4,97.9,162.2,90.4,165.1L90.4,165.1z M112.8,178.6c1.5,0.2,2.9,0.3,4.4,0.3
		c0.1,0,0.7,0,1.7,0.1c1.4,0.1,2-0.6,1.7-2.2c0-0.3,0-0.6,0.1-0.9c0-0.3,0-0.5,0-0.8c-0.1-0.3-0.4-0.4-0.7-0.4
		c-2.3,0.3-4.6,0.8-6.9,1.5c-0.5,0.1-0.9,0.4-1.2,0.8C111.3,177.9,111.6,178.4,112.8,178.6L112.8,178.6z M155.7,176.2
		c-2.2-0.5-4.3-1-6.5-1.4c-0.3-0.1-0.6,0.1-0.6,0.4l0,3c0,0.3,0.3,0.5,0.6,0.5l6.7,0.2c0.3,0,0.6-0.1,0.9-0.4
		C157.7,177.4,157.4,176.6,155.7,176.2L155.7,176.2z M189.8,190.2c-10-1.8-20-2.3-29.9-1.4c-8.7,0.8-16.9,3-24.8,6.6
		c-0.3,0.1-0.6,0.1-0.9,0c-7.2-3.3-14.4-5.3-21.6-6.2c-10.6-1.3-21.5-1.1-32.6,0.8c-0.5,0.1-0.9,0.3-1.1,0.7l-11.2,16.1
		c-0.6,0.8-0.4,1.1,0.6,1.1c11.8-1,23.5-1.6,35.1-1.8c5.1-0.1,10.1,0.3,15.1,1.2c2.5,0.4,4,0.8,4.6,1.1c1.7,0.9,2.4,2.5,2.1,4.9
		c0,0.5,0.3,0.9,0.8,0.9h17.5c0.4,0,0.7-0.4,0.7-0.8c-0.5-2.7,0.5-4.4,3-5.1c6.2-1.7,12.5-2.4,19-2.3c11.6,0.3,23.3,0.9,35,1.9
		c0.9,0.1,1.1-0.3,0.6-1l-11.5-16.5C190.2,190.3,190,190.2,189.8,190.2z"/>
	<path class="st4" d="M1224.5,119.4c-0.1,0.8,0.2,1,0.8,0.4c3.3-2.9,7-5.7,11.1-8.4c1-0.7,1.9-0.5,2.7,0.5c1.9,2.5,1.5,5.3-1.1,8.3
		c-0.8,1-1.5,2.1-2,3.2c-0.7,1.8-1.9,3.9-3.6,6.3c-2.7,3.9-5.1,7.8-7.3,11.9c-0.2,0.3-0.2,0.6,0,0.9c1,2.5,1.2,5.2,0.8,8
		c-0.4,2.7-0.5,5.5-0.3,8.4c0.3,4.5,0.6,7.2,0.8,8.3c0.8,4.4,3.2,7.6,7.3,9.5c1.7,0.8,3.8,1.2,6.5,1.2c1.7,0,3.9,0,6.7,0
		c6.7-0.1,12.8-1.3,18.2-3.6c1.7-0.7,2.8-1.6,3.4-2.6c0.8-1.3,1-2.8,0.8-4.5c-0.6-3.3-0.6-6.5-0.1-9.5c0.3-2-0.2-3.6-1.7-4.8
		c-1.9-1.5-2.7-3.5-2.3-6c0.1-0.5,0.5-0.9,1-0.9c2.1-0.1,3.8,0.4,5.1,1.6c0.9,0.8,1.7,2.2,2.4,4.3c1.6,4.7,2.1,9.6,1.4,14.8
		c-0.1,0.6,0.2,1.1,0.6,1.5c1.8,1.4,2.6,3.2,2.5,5.6c-0.1,1.3-0.1,3.1-0.1,5.2c0,0.6-0.3,1.1-0.8,1.4c-5.5,3-11.2,5.1-17.1,6.2
		c-3.8,0.7-8.7,0.9-14.6,0.7c-6.7-0.3-11.6-0.8-14.7-1.5c-3.9-0.9-6.5-3.2-7.8-7c-0.7-2.2-1.6-4.4-2.6-6.5c-0.8-1.7-1.2-3.3-1.2-4.9
		c0-4.2,0.5-8.3,1.5-12.4c0.3-1.1,0.4-2.2,0.3-3.4c-0.1-0.8-0.3-0.8-0.8-0.2c-2.6,3.8-4.8,7.7-6.5,11.9c-2.3,5.4-5.5,10.1-9.6,14.2
		c-0.2,0.2-0.5,0.4-0.8,0.3l-8.4-0.9c-0.2,0-0.4-0.3-0.3-0.5c1.7-3.7,3.5-7.5,5.3-11.2c1.3-2.7,6.1-10.8,14.4-24.3
		c0.4-0.7,0.7-1.3,0.7-1.8c0.1-1.4-0.5-1.7-2-0.9c-0.5,0.2-1,0.6-1.5,1.1c-4.7,4.6-9.1,9.4-13.2,14.4c-1.8,2.2-3.9,3.5-6.4,3.9
		c-2,0.3-3.2-0.5-3.7-2.6c-0.5-2.3-0.2-4.3,1-6.3c4.6-7.3,9.8-14.1,15.6-20.3c0.9-0.9,0.8-1.8-0.2-2.5c-0.9-0.7-1.8-1.3-2.5-1.8
		c-0.7-0.5-1.1-0.4-1,0.4c0,0.5-0.4,1-0.9,1.1l-10.4,1.8c-0.6,0.1-1.3-0.2-1.5-0.8c-0.7-1.8-1.4-3.7-2.2-5.6c-1-2.3-1.6-4.2-2-5.6
		c-0.9-4-1.3-7.8-1-11.5c0.1-1.7,0.1-3.2-0.2-4.6c-0.6-2.7-0.8-4.2-0.8-4.4c0-2.3,0.7-4.3,2.1-5.9c0.7-0.8,1.8-0.9,2.5-0.3l5.2,4
		c0.2,0.2,0.2,0.5,0,0.7c-1.1,1.2-0.9,2.3,0.4,3.3c0.2,0.2,0.5,0.4,0.7,0.7c0.4,0.6,1,0.9,1.6,0.9c0.4,0,0.9-0.2,1.5-0.7
		c3.1-2.5,6-4.9,8.9-7.3c0.4-0.3,0.6-0.9,0.4-1.4c-0.8-2.4-1.7-4.6-2.8-6.6c-2-3.8-3.1-5.9-3.3-6.4c-0.9-2.6-1.3-5.3-1.2-8.1
		c0-0.7,0.7-1.1,1.3-0.9c1.3,0.4,2.6,0.9,3.9,1.3c0.7,0.2,1.9,0.4,3.7,0.4c1.8,0.1,3.3,0.8,4.5,2.2c1.4,1.5,2.8,2.8,4.4,3.7
		c3,1.8,4.5,2.7,4.6,2.8c1.3,1.2,2.4,2.7,3.2,4.6c0.2,0.5,0.8,0.8,1.4,0.8c4.1-0.4,7.8-0.6,11.2-0.6c3.1,0,5.7,0.8,7.8,2.6
		c2.1,1.7,3.5,3.9,4.1,6.6c0.7,2.9-0.1,5.3-2.5,7.1c-1.2,1-3.4,1.8-6.4,2.4c-3.7,0.8-7.5,1.7-11.2,2.7c-2.7,0.7-5.3,1.7-7.7,2.8
		c-2.5,1.2-4.9,2.4-7.4,3.7c-0.8,0.4-0.8,0.9,0,1.3c1,0.5,2,0.8,3.1,0.7C1222.2,111.6,1224.8,114.1,1224.5,119.4L1224.5,119.4z
		 M1226.4,92.2c-0.5,0.8-1,1.6-1.6,2.4c-0.9,1.5-2.2,2.5-3.8,2.9c-1.7,0.4-2.6,0.7-2.6,0.7c-2.1,0.8-4.3,1.5-6.5,2.1
		c-0.7,0.2-2.1,0.4-4.2,0.5c-2.9,0.1-5,1.6-6.2,4.5c-1.4,3.4-1.8,7-1.2,10.6c0.1,0.4,0.3,0.5,0.6,0.2c2.7-2.6,5.8-4.7,9.2-6.4
		c3.9-1.9,7.7-3.8,11.6-5.7c0.6-0.3,3-1.3,7.4-3.1c4.2-1.7,8-4.3,11.3-7.7c1.2-1.2,1-2.1-0.7-2.6c-2.4-0.7-5.3-1-8.7-0.9
		C1229.1,89.8,1227.5,90.6,1226.4,92.2z"/>
	<path class="st4" d="M356.9,97.4c-0.3,1.3-1.1,2.3-2.4,3c-3.5,1.8-6.7,2.8-9.7,3.3c-1.4,0.2-2.6-0.1-3.7-1
		c-3.9-3.1-6.3-7.3-7.3-12.5c-0.3-1.5-0.6-2.9-1-4.3c-0.1-0.2-0.6-1.6-1.5-4.1c-0.6-1.6-1-3.3-1.2-5c0-0.3,0.2-0.5,0.5-0.5
		c4.9,0,8.7,0.2,11.2,0.7c4,0.8,7.7,2.3,11.1,4.7c2.6,1.8,4,4.2,4.4,7.1c0.1,0.9,0.2,2.3,0.1,4.4C357.4,94.7,357.2,96.2,356.9,97.4z
		"/>
	<path class="st4" d="M1159.2,158.6c0.4,1,0.9,1,1.3,0l5.4-12.8c0.2-0.3,0.4-0.6,0.6-0.5c0.2,0.1,0.2,0.4-0.1,0.9
		c-4,10.6-5.2,21.5-3.6,32.7c0.1,0.5-0.2,1.1-0.7,1.3c-0.9,0.5-1.7,1-2.4,1.6c-0.5,0.4-1.1,1.1-1.7,2.2c-0.7,1.1-1.5,2.1-2.5,2.9
		c-0.2,0.2-0.5,0.1-0.6-0.2c-2.2-4.3-3.5-9.6-3.8-15.8c-0.6-12.6-0.9-20.1-1-22.5c-0.2-8.7,0.5-17.3,2.2-25.8
		c0.6-3.3,1.3-5.5,2.2-6.4c0.9-1.1,2.4-1.6,4.5-1.5c0.5,0,0.9-0.3,0.9-0.8l2.2-14c0-0.3,0-0.7-0.2-1c-0.7-1.2-1.8-2.7-3.3-4.2
		c-1.9-1.9-3-4.4-3.4-7.3c-0.2-1.8-0.3-2.8-0.3-3c-0.3-1.9-0.4-3.6-0.3-4.8c0.1-1.2,0.7-1.8,1.8-1.7c0.3,0,0.6,0.2,0.8,0.5
		c1.1,1.4,2.6,2.2,4.3,2.3c1.8,0.1,3,0.2,3.6,0.4c2.9,1,5.7,2.1,8.4,3.5c1.2,0.6,2.1,1.3,2.5,2.2c0.5,0.9,0.9,2,1,3.3
		c0.1,0.9,0.6,1.7,1.5,2.3c0.3,0.2,0.5,0.5,0.6,0.7c2.4,5.9,2.4,11.6,0.2,17.3c-0.7,1.9-1.2,3.6-1.3,5c-0.7,7.7-1.2,15.4-1.5,23.1
		c0,0.3-0.2,0.6-0.4,0.8c-3.5,2.6-7.4,3.3-11.7,2.3c-2.2-0.5-3.5-2-3.9-4.3c-0.1-0.4-0.2-0.7-0.4-1c-0.6-0.9-0.9-0.6-1,0.9
		c0,0.5,0,0.9,0,1.2c-0.4,4.6-0.8,9.1-1,13.7C1158.1,154.6,1158.4,156.7,1159.2,158.6z"/>
	<path class="st4" d="M713.7,140.8c1.2,0.4,2.3,0.3,3.3-0.4c0.3-0.2,0.4-0.4,0.5-0.8c0.7-2.6,0.8-5.3,0.2-7.9
		c-0.1-0.3-0.3-0.5-0.6-0.7c-0.6-0.3-0.9-0.8-1-1.5c0-0.4,0.1-0.9,0.5-1.5c0.4-0.7,0.7-1.4,1-2.1c0.3-0.7,0.4-1.4,0.3-2.2
		c-0.2-1.9-0.3-3.9-0.4-5.8c-0.1-2,0.1-3.7,0.6-4.9c1.3-2.9,3.2-3.2,6-0.9c1.4,1.1,2.4,0.9,3.1-0.8c1.8-4.4,4-8,6.8-10.8
		c1.1-1.1,1.9-2.8,2.6-5.1c0.1-0.3,0.3-0.6,0.5-0.8c1.5-1.4,2.3-3.1,2.7-5.1c0.5-3.2,1.9-5.5,4.2-6.9c1.4-0.9,3.9-1.4,7.3-1.5
		c11.2-0.4,19.3-0.5,24.5-0.4c0.9,0,1.9,0.3,2.8,0.9c1.2,0.7,2,1.1,2.6,1.4c3.5,1.8,5.6,4.6,6.3,8.6c0.1,0.9,0.5,1.7,1.1,2.3
		c2.6,3.1,3.3,6.2,2,9.3c-0.4,1-1.3,1.9-2.6,2.8c-1.8,1.2-3.5,2.5-5,4.1c-1.9,2-3.4,3.5-4.5,4.5c-2.9,2.7-5.3,5.8-7.2,9.3
		c-0.8,1.5-1.5,2.5-2,3c-0.9,0.9-1.9,1.6-3.1,2.1c-0.7,0.3-1.2,1-1.2,1.8c0,2.3,0.7,3.8,2.3,4.4c0.3,0.1,0.6,0.1,0.9-0.1
		c4.3-1.9,7.8-1.2,10.5,2.2c0.8,1,1,2.1,0.6,3.4c-0.2,0.8-0.8,1.7-1.7,2.8c-2.1,2.6-4.6,4.7-7.4,6.5c-2.9,1.8-4.5,3-4.9,3.7
		c-1.2,1.8-1.5,4-0.8,6.7c0.2,0.8,1,1.4,1.8,1.4c1.6,0,3.2,0.2,4.8,0.4c1.4,0.2,2.6,0.8,3.5,1.8c2,2.1,3.7,4.5,5,7.2
		c0,0.1,0.3,0.6,0.8,1.5c1.2,2.2,0.3,3.2-2.8,3.1c-9.8-0.4-17.5-0.4-23,0c-1.7,0.1-3.8,0.8-6.4,2.1c-1.7,0.8-4.8,2.9-9.4,6.4
		c-0.3,0.2-0.6,0.3-0.9,0.3c-1.5,0-2.8-0.4-3.8-1.3c-1.5-1.3-2.5-2.1-2.8-2.3c-1.4-0.9-2.7-1.9-3.9-3.1c-1.4-1.3-2.3-2.7-2.6-4.1
		c-0.8-2.9,0.8-4.5,4.7-5c5.2-0.6,10-2.2,14.4-4.9c4.2-2.6,6.6-4,7-4.4c2.3-2.1,3.1-5.1,2.2-9c-0.1-0.3-0.3-0.5-0.6-0.6
		c-2.4-0.3-4.7-0.6-7.1-0.9c-0.7-0.1-1.2-0.3-1.5-0.6c-0.7-0.7-0.4-1.3,0.9-2c1.9-1.1,3.1-2.7,3.4-4.7c0.2-1.4,1-2.2,2.4-2.2
		c0.4,0,0.7-0.1,0.9-0.2c2.2-1.4,2.6-3.5,1.4-6c-0.1-0.3-0.4-0.4-0.7-0.3c-2.1,0.8-4.2,2.2-6.2,4.1c-6.4,6.1-10.3,9.9-11.8,11.4
		c-0.9,0.9-1.7,1.6-2.6,2.3c-1.1,0.8-2.1,1.2-3.1,1.3c-1.6,0.1-3-0.6-4.1-2c-1.8-2.3-3.3-4.9-4.6-7.7c-0.2-0.5-0.8-0.5-1.2-0.1
		c-2.8,3.6-5.9,6.8-9.1,9.8c-2.2,2-4,3.8-5.4,5.3c-1.7,1.9-3.4,3.7-5.2,5.5c-2.6,2.7-4.9,5.7-6.8,8.9c-2.2,3.7-5.9,7.4-11.2,11.2
		c-0.7,0.5-1.2,1.1-1.4,1.7c-0.2,0.6-0.3,1.2-0.4,1.8c0,0.3-0.2,0.5-0.5,0.6c-1.5,0.2-3,0.3-4.5,0.3c-0.1,0-0.5,0-1.4,0.1
		c-1,0-1.4-0.4-1.4-1.3c0-0.8-0.1-1.3-0.1-1.6c-0.6-2.1-1.3-4.3-1.9-6.5c-0.1-0.3-0.1-0.7,0.1-0.9c1.4-3.1,4.2-5,8.5-5.7
		c0.8-0.1,1.6-0.6,2.1-1.4c1.3-2,3-3.7,5.2-5.2c1.8-1.3,2.3-2.6,1.6-4c-0.4-0.7-1.3-1.5-2.7-2.4c-2.6-1.6-4.9-3.1-6.9-4.5
		c-1.1-0.8-1.3-1.8-0.8-3c2-4.4,4.7-7.8,8.1-10.2c0.8-0.6,2.1-1.2,3.8-1.8c1.4-0.5,2.7-1,4-1.6c0.9-0.4,1.4-1.3,1.4-2.2l-0.2-12.9
		c0-0.8-0.5-1.6-1.4-1.9c-2.2-1-4.3-2.2-6.2-3.7c-1.3-1-2.3-1.7-3-1.9c-1.5-0.4-2.7-0.1-3.7,0.9c-0.7,0.7-1,0.6-1-0.4
		c-0.2-4.8,0.6-9.5,2.2-14c0.9-2.4,2.8-3.6,5.7-3.7c1.4,0,2.2-0.7,2.5-2c1-4,4-5.7,8.7-4.9c1.3,0.2,2.3,0.8,3.2,1.7
		c0.8,0.9,2.2,2,4,3.2c1.1,0.8,2,1.5,2.6,2.4c0.6,0.8,0.7,1.9,0.5,3.2c-0.2,1.2-0.6,2.4-1,3.6c-0.6,1.5-0.9,2.7-1,3.5
		c-0.2,1.8-0.3,3.7-0.3,5.6c0,1.5-0.2,3-0.6,4.6c-1,3.4-1.1,6.9-0.5,10.5c0,0.3,0.3,0.5,0.6,0.5c2.8,0,4.5,0.1,5.2,0.3
		c2.5,0.8,3.6,2.7,3.2,5.5c-0.2,1.4-0.1,3,0.2,4.7C713.1,140.4,713.4,140.7,713.7,140.8L713.7,140.8z M762.7,97.2
		c-0.4,1.9-0.4,3.8-0.1,5.7c0.2,1.6,1.2,2.2,2.7,1.7c2.4-0.7,4.3-1.9,5.7-3.8c0.1-0.1,0.6-1.2,1.5-3.3c0.5-1.2,1.4-2.3,2.7-3.5
		c1.7-1.5,1.8-3.1,0.3-4.8c-0.2-0.2-0.5-0.4-0.8-0.4c-2-0.1-4,0.5-6,1.9c-1.6,1.1-2.9,2-3.8,2.8C763.8,94.6,763,95.8,762.7,97.2
		L762.7,97.2z M735.3,102.6c-3.1,3.8-5.3,8.1-6.8,12.8c-1.4,4.6-0.1,5.8,3.9,3.6c2.1-1.1,5.1-2.2,8.9-3.3c1.2-0.3,2.4-1,3.5-1.9
		c1.4-1.2,2.4-1.9,3-2.2c1.1-0.6,2.2-1.2,3.3-1.8c0.7-0.3,1.1-1,1.1-1.6l0.3-11.7c0-0.3-0.2-0.5-0.5-0.5h-7.9
		c-0.9,0-1.7,0.3-2.5,0.8C739,98.7,736.8,100.7,735.3,102.6L735.3,102.6z M727.6,129c-0.8,2.9-0.6,5.6,0.5,8.2
		c0.3,0.6,1.1,0.9,1.7,0.5c4-2.6,7.1-6,9.2-10c1.1-2,0.5-2.8-1.6-2.4l-7.3,1.3C728.8,126.7,728,127.5,727.6,129L727.6,129z
		 M691.9,148.5c-0.4-1.3-2.5-1.7-4.6-1c-2.1,0.7-3.5,2.3-3.1,3.6c0.4,1.3,2.5,1.7,4.6,1C690.9,151.4,692.3,149.8,691.9,148.5z"/>
	<path class="st4" d="M333.4,143c-0.3,2.7-0.2,5.4,0.3,8.1c0,0.1,0.2,1.4,0.5,3.7c0.2,2,1.1,3.6,2.6,4.9c0.4,0.4,1,0.2,1.2-0.3
		c5.1-11.2,11.1-21.8,18-32c5.4-7.9,10.7-15.8,16.1-23.8c0.2-0.2,0.5-0.4,0.8-0.4c5.8,0.5,10,1.1,12.4,1.8c1.6,0.5,3.2,0.7,4.6,0.6
		c1-0.1,2.4-0.6,4.2-1.4c4.1-2,7.1-3.3,9.1-3.9c5.8-1.6,9.4,0.5,10.9,6.1c1.4,5.2,0.3,9.5-3.2,12.7c-0.7,0.7-1,1.7-0.8,2.7
		c0.4,1.5,0,2.6-1.1,3.2c-1.2,0.7-2.3,2.2-3.5,4.6c-1.4,2.8-0.5,4.3,2.7,4.5c3.8,0.3,8.1,0.8,13.1,1.6c0.7,0.1,1.3,0.6,1.5,1.2
		c1.1,2.7,1.4,5.4,0.9,8.2c-0.2,1.3-1,1.9-2.3,1.8c-5.4-0.5-10.7-0.8-16-1c-3.3-0.1-5.7,0.9-7.4,3.1c-0.6,0.8-2.2,2-4.7,3.7
		c-2.2,1.5-4.3,1.9-6.3,1.1c-1.1-0.4-2-0.8-2.8-1c-0.8-0.2-1.7-0.1-2.9,0.3c-1.9,0.6-4,1.1-6.4,1.4c-0.7,0.1-1.5-0.1-2-0.6
		c-1.4-1.3-2.8-2.5-4.2-3.8c0,0-0.8-0.6-2.2-1.7c-1.1-0.9-2-2-2.5-3.3c-0.3-0.8-0.2-1.8,0.4-2.5c1.3-1.6,2.6-2.8,3.9-3.6
		c0.3-0.1,0.6-0.2,0.9-0.1c6,1.3,11.7,0.6,17.2-2.2c1.9-1,2-2.4,0.1-4.2c-5.9-5.6-10.1-12.3-12.6-20.1c-0.4-1.3-1.2-1.6-2.3-0.8
		c-1.8,1.2-3.3,2.6-4.5,4.4c-1.3,1.9-1.9,2.9-2,2.9c-10.1,13.2-18.4,27.5-25.1,42.8c0,0-0.3,0.6-0.8,1.6c-0.9,1.8-1.2,3.7-1,5.8
		c0.1,0.9,0.1,1.7,0,2.5c-0.1,0.6-0.2,1.5-0.2,2.5c-0.2,3-1.8,5.1-4.8,6.2c-1.9,0.7-3.2,1.9-4,3.7c-0.4,0.9-0.9,0.9-1.4,0
		c-1.2-2.3-2-4.7-2.4-7.2c-1.3-8.9-2.6-17.7-3.9-26.6c-0.4-2.9-0.4-6.5,0-10.7c0.6-6.5,0.9-13.1,0.7-19.9c0-1.5,0.7-2.4,2.2-2.6
		c1.6-0.2,3.3,0.3,5.1,1.5c1.6,1,3.7,3.1,6.4,6.3c1.2,1.4,2.8,2.9,4.6,4.3c2,1.6,3.5,3.1,4.5,4.5c1.4,2,1.1,3.9-1.1,5.5
		c-2.9,2.3-6.3,3.4-10,3.2C333.6,142.5,333.4,142.7,333.4,143z"/>
	<path class="st4" d="M903.6,143.7c0.1,0.6,0.6,1,1.2,1c5.2-0.3,10.1-0.4,14.7-0.3c0.1,0,0.9,0,2.4-0.1c2-0.1,3.8,0.4,5.3,1.4
		c1.4,0.9,2.7,2.1,3.8,3.6c2.2,2.8,2.1,6-0.2,9.6c-1.1,1.7-2.6,2.4-4.6,2.1c-6.7-1.1-13.7-1.9-21-2.5c-1.2-0.1-2.3,0.2-3.2,1
		c-2.3,2-5,2.9-8.1,2.9c-2,0-4,0.2-5.9,0.7c-0.8,0.2-2.2,0.7-4.2,1.6c-1.4,0.6-2.8,1.1-4.2,1.5c-3.2,1-5.2,1.6-5.9,1.9
		c-1.9,0.7-3.9,1.4-5.8,2.2c-3,1.1-6.1,0.7-9.4-1.4c-2.1-1.3-5.1-3.6-9.2-7.1c-1.3-1.1-2-2.3-2.1-3.6c-0.1-1.1,0.3-2.3,1.3-3.5
		c2.6-3.3,6.1-4.7,10.6-4.3c2.1,0.2,3.2,0.3,3.2,0.4c5.9,0.3,11.8-0.3,17.6-1.8c0.6-0.2,1-0.6,1.1-1.1l0.9-7.7
		c0.2-1.8-0.7-2.8-2.8-2.9c-2.1-0.1-4-0.2-5.7-0.3c-3.5-0.3-6.2-2.1-7.9-5.6c-0.5-0.9-1.1-1.8-1.8-2.6c-2.3-2.4-4.3-5.3-6-8.7
		c-1-2.1-1.4-4.2-0.9-6.5c0.3-1.5,1.2-2.2,2.8-2.1c4.3,0.3,8.4,0.6,12.1,1.1c3,0.4,6.1,0.4,9.1,0.1c2.4-0.2,5.3-0.9,8.8-2.1
		c7.4-2.5,11.8-4.1,13.4-4.9c2.3-1.1,4.4-1.1,6.2,0c2.5,1.5,4.6,3.3,6.3,5.6c2.5,3.3,3,6.4,1.3,9.4c-0.8,1.4-2.4,3-4.9,4.7
		c-1.9,1.3-3.8,2.6-5.7,3.8c-0.8,0.5-1.4,1.3-1.7,2.2C903.2,135.8,903,139.9,903.6,143.7z"/>
	<path class="st6" d="M169.4,116.9c1.2,0.4,1.2,1-0.1,1.7c-5.8,3.3-12,5-18.7,5.3c-0.8,0-0.9,0.3-0.4,0.9
		c6.1,7.8,13.9,13.3,23.4,16.3c3.4,1.1,6.7,2.3,10,3.6c0.2,0.1,0.3,0.4,0.2,0.6c-0.8,0.9-2,1.8-3.6,2.5c-6.2,2.9-12.6,4.7-19.1,5.5
		c-1.1,0.1-1.2,0.5-0.3,1.1c9.5,6.4,19.8,11,31.1,13.8c0.9,0.2,1,0.6,0.2,1.2c-5.5,3.8-11.4,6-17.9,6.7l0-0.5
		c5.9-1,11.3-3.1,16.4-6.1c0.6-0.3,0.5-0.6-0.1-0.7c-11.8-3.1-22.5-8.2-32.3-15.4c-0.3-0.2-0.2-0.3,0.1-0.4c8.5-1.1,16.5-3.5,24-7.2
		c0.8-0.4,0.7-0.7-0.1-0.9c-4.2-1.3-8.3-2.6-12.1-4.1c-8.2-3.2-15-8.2-20.2-15.1c-1.1-1.5-0.8-2.3,1.1-2.5
		c5.9-0.6,11.6-2.2,16.9-4.6c0.5-0.2,0.9-0.7,1-1.2L169.4,116.9z"/>
	<path class="st6" d="M90.1,164.4c0.2,0.2,0.3,0.4,0.3,0.7l-10.8,3.7c-0.8,0.3-0.9,0.6-0.1,1.1c4.6,2.7,9.5,4.6,14.7,5.6l-0.2,0.4
		c-5.9-0.8-11.4-2.9-16.6-6.6c-0.7-0.5-0.6-0.8,0.2-1C82,167.3,86.2,166,90.1,164.4z"/>
	<path class="st3" d="M127.5,241.4c0.9-1,0.7-1.4-0.6-1.5c-2.2,0-3.9-0.5-5.1-1.4c-1.2-0.9-1.7-2.2-1.5-3.9c0.2-1.8,1.1-3.1,2.9-3.9
		c4-1.8,7.1-1.1,9.3,2.1c0.7,1.1,1,2.4,0.8,4c-0.2,1.4-0.6,2.6-1.4,3.7c-1.6,2.2-3.8,3.2-6.7,3.2c-0.1,0-0.6,0-1.5,0.1
		c-1,0-1.4-0.4-1.3-1.2c0-0.3,0.3-0.4,0.6-0.3C124.9,242.8,126.5,242.5,127.5,241.4L127.5,241.4z M126.3,237.7
		c1.6,1.2,2.5,0.8,2.8-1.2c0.2-1.4-0.3-2.8-1.5-4.4c-0.6-0.8-1.7-0.7-2.2,0.1C124.1,234.5,124.4,236.3,126.3,237.7z"/>
	<path class="st3" d="M135.8,236c-2.1-3-1.3-5,2.5-5.9c2.5-0.6,4.5-0.4,6.2,0.6c1.9,1.1,2.2,2.7,0.9,4.6c-0.2,0.3-0.3,0.6-0.3,0.9
		c0.1,0.8,0.4,1.4,1.1,1.8c0.3,0.2,0.5,0.5,0.5,0.8c0.3,2.2-0.5,3.7-2.5,4.5c-1.6,0.7-3.4,0.9-5.4,0.5c-1.8-0.3-3.2-1-4.1-2
		c-1.3-1.6-1-3.3,0.9-5.1C136,236.5,136,236.2,135.8,236L135.8,236z M142.5,233.6c0-1.1-0.9-2-2-2c-1.1,0-2,0.9-2,2c0,1.1,0.9,2,2,2
		C141.6,235.6,142.5,234.7,142.5,233.6L142.5,233.6z M142.8,239.9c0-1.3-1-2.3-2.3-2.3c-1.3,0-2.3,1-2.3,2.3c0,1.3,1,2.3,2.3,2.3
		C141.8,242.1,142.8,241.1,142.8,239.9z"/>
	<path class="st2" d="M148.3,240.2c-0.4-0.3-0.6-0.8-0.8-1.5c-0.1-0.3,0-0.6,0.3-0.8l7.5-7.3c1.2-1.1,1.8-0.9,1.9,0.8l0.3,5.9
		c0,0.2,0.1,0.6,0.4,0.9c0.6,0.9,0.7,1.8,0.2,2.8c-0.1,0.3-0.2,0.6-0.2,0.9c-0.1,1.6-1.1,2.1-3,1.7c-0.7-0.2-1.2-0.8-1.1-1.5
		c0.1-1.3-0.8-1.7-2.6-1.2C150,241.1,149,240.9,148.3,240.2L148.3,240.2z M150.1,237.8c-0.4,0.4-0.3,0.6,0.3,0.7
		c2.6,0.5,3.7-0.7,3.1-3.6c-0.1-0.3-0.2-0.4-0.4-0.2L150.1,237.8z"/>
	<path class="st2" d="M112.2,233.1c-0.3-0.1-0.4-0.3-0.2-0.6c0.1-0.1,0.2-0.2,0.4-0.3c1.3-0.5,2.7-1.1,4.1-1.6
		c0.3-0.1,0.6,0.1,0.6,0.4l0,12.5c0,0.3-0.2,0.6-0.5,0.7c-2.8,1-3.9-0.2-3.2-3.4c0.4-2.1,0.2-4.5-0.7-7.2
		C112.8,233.4,112.6,233.1,112.2,233.1z"/>
	<g>
		<path d="M317.7,218.8v-0.9h14.4v0.9H331c-1.4,0-2.4,0.4-3,1.2c-0.4,0.5-0.6,1.8-0.6,3.8v16.5c0,2.5-0.3,4.6-0.8,6.2
			c-0.6,1.6-1.5,2.9-2.9,4.1c-1.4,1.2-3,1.8-4.9,1.8c-1.6,0-2.8-0.4-3.7-1.2c-0.9-0.8-1.3-1.7-1.3-2.6c0-0.8,0.2-1.4,0.6-1.8
			c0.5-0.5,1.2-0.8,1.9-0.8c0.5,0,1,0.2,1.4,0.5c0.4,0.3,1,1.3,1.6,2.8c0.4,0.9,0.9,1.3,1.5,1.3c0.4,0,0.9-0.3,1.3-0.8
			s0.6-1.5,0.6-2.9v-23c0-1.7-0.1-2.8-0.3-3.4c-0.2-0.4-0.5-0.8-1-1.1c-0.7-0.4-1.5-0.6-2.3-0.6H317.7z"/>
		<path d="M347.7,250.6v0.9h-14.4v-0.9h1.2c1.4,0,2.4-0.4,3-1.2c0.4-0.5,0.6-1.8,0.6-3.8v-21.8c0-1.7-0.1-2.8-0.3-3.4
			c-0.2-0.4-0.5-0.8-1-1.1c-0.7-0.4-1.5-0.6-2.3-0.6h-1.2v-0.9h14.4v0.9h-1.2c-1.4,0-2.4,0.4-3,1.2c-0.4,0.5-0.6,1.8-0.6,3.8v21.8
			c0,1.7,0.1,2.8,0.3,3.4c0.2,0.4,0.5,0.8,1,1.1c0.7,0.4,1.5,0.6,2.3,0.6H347.7z"/>
		<path d="M371.8,240.3h-13.1l-2.3,5.3c-0.6,1.3-0.8,2.3-0.8,2.9c0,0.5,0.2,1,0.7,1.4c0.5,0.4,1.5,0.6,3.2,0.8v0.9h-10.6v-0.9
			c1.4-0.2,2.3-0.6,2.7-1c0.8-0.8,1.8-2.4,2.8-4.8l11.9-27.8h0.9l11.7,28c0.9,2.3,1.8,3.7,2.6,4.4c0.8,0.7,1.8,1,3.2,1.1v0.9h-13.3
			v-0.9c1.3-0.1,2.3-0.3,2.7-0.7c0.5-0.4,0.7-0.8,0.7-1.4c0-0.7-0.3-1.9-1-3.5L371.8,240.3z M371.1,238.4l-5.7-13.6l-5.9,13.6H371.1
			z"/>
		<path d="M384.1,217.8h9.2l20.6,25.3v-19.4c0-2.1-0.2-3.4-0.7-3.9c-0.6-0.7-1.6-1-2.9-1h-1.2v-0.9h11.7v0.9h-1.2
			c-1.4,0-2.4,0.4-3,1.3c-0.4,0.5-0.5,1.7-0.5,3.6v28.4h-0.9l-22.2-27.2v20.8c0,2.1,0.2,3.4,0.7,3.9c0.6,0.7,1.6,1,2.9,1h1.2v0.9
			h-11.7v-0.9h1.2c1.4,0,2.5-0.4,3.1-1.3c0.4-0.5,0.5-1.7,0.5-3.6v-23.4c-1-1.1-1.7-1.9-2.2-2.3c-0.5-0.4-1.2-0.7-2.2-1
			c-0.5-0.1-1.2-0.2-2.2-0.2V217.8z"/>
		<path d="M452.3,217.1l0.9,10.6h-0.9c-0.9-2.7-2-4.7-3.4-6c-2-1.9-4.6-2.9-7.7-2.9c-4.3,0-7.6,1.7-9.8,5.1
			c-1.9,2.9-2.8,6.3-2.8,10.2c0,3.2,0.6,6.2,1.9,8.8c1.2,2.7,2.9,4.6,4.9,5.8s4.1,1.9,6.2,1.9c1.2,0,2.4-0.2,3.6-0.5
			c1.2-0.3,2.3-0.8,3.4-1.4V239c0-1.7-0.1-2.8-0.4-3.3c-0.3-0.5-0.7-0.9-1.2-1.2c-0.5-0.3-1.5-0.4-2.8-0.4v-0.9h13.1v0.9h-0.6
			c-1.3,0-2.2,0.4-2.7,1.3c-0.3,0.6-0.5,1.8-0.5,3.6v10.3c-1.9,1-3.8,1.8-5.6,2.3s-3.9,0.7-6.2,0.7c-6.5,0-11.5-2.1-14.8-6.3
			c-2.5-3.1-3.8-6.7-3.8-10.8c0-3,0.7-5.8,2.1-8.5c1.7-3.2,4-5.7,7-7.5c2.5-1.4,5.4-2.2,8.8-2.2c1.2,0,2.3,0.1,3.3,0.3
			c1,0.2,2.4,0.6,4.3,1.3c0.9,0.3,1.5,0.5,1.9,0.5s0.6-0.1,0.8-0.4c0.2-0.3,0.4-0.9,0.4-1.7H452.3z"/>
		<path d="M480.7,217.1v11.7h-0.9c-0.3-2.2-0.8-4-1.6-5.3s-1.9-2.4-3.3-3.2c-1.4-0.8-2.9-1.2-4.4-1.2c-1.7,0-3.1,0.5-4.3,1.6
			s-1.7,2.3-1.7,3.6c0,1,0.4,2,1.1,2.8c1,1.2,3.5,2.9,7.3,5c3.1,1.7,5.3,3,6.5,3.9s2,2,2.7,3.2c0.6,1.2,0.9,2.5,0.9,3.9
			c0,2.6-1,4.8-3,6.6c-2,1.8-4.5,2.8-7.6,2.8c-1,0-1.9-0.1-2.8-0.2c-0.5-0.1-1.6-0.4-3.2-0.9c-1.6-0.5-2.6-0.8-3.1-0.8
			c-0.4,0-0.7,0.1-1,0.4c-0.2,0.2-0.4,0.8-0.5,1.5h-0.9v-11.6h0.9c0.4,2.4,1,4.2,1.7,5.4s1.8,2.2,3.3,3c1.5,0.8,3.1,1.2,4.9,1.2
			c2.1,0,3.7-0.5,4.9-1.6c1.2-1.1,1.8-2.4,1.8-3.9c0-0.8-0.2-1.7-0.7-2.5c-0.5-0.8-1.2-1.6-2.1-2.4c-0.6-0.5-2.4-1.6-5.3-3.2
			s-4.9-2.9-6.2-3.9c-1.2-1-2.1-2-2.8-3.2c-0.6-1.2-0.9-2.4-0.9-3.8c0-2.4,0.9-4.5,2.8-6.3c1.9-1.7,4.2-2.6,7.1-2.6
			c1.8,0,3.7,0.4,5.7,1.3c0.9,0.4,1.6,0.6,2,0.6c0.4,0,0.8-0.1,1.1-0.4s0.5-0.8,0.7-1.6H480.7z"/>
		<path d="M509.5,218.8v-0.9h11.9v0.9h-1.3c-1.3,0-2.3,0.6-3.1,1.7c-0.3,0.5-0.5,1.7-0.5,3.6v13.7c0,3.4-0.3,6-1,7.9
			c-0.7,1.9-2,3.5-4,4.8c-2,1.3-4.6,2-8,2c-3.7,0-6.5-0.6-8.4-1.9c-1.9-1.3-3.3-3-4.1-5.1c-0.5-1.5-0.8-4.2-0.8-8.3v-13.2
			c0-2.1-0.3-3.4-0.9-4.1s-1.5-1-2.8-1h-1.3v-0.9H500v0.9h-1.3c-1.4,0-2.4,0.4-3,1.3c-0.4,0.6-0.6,1.8-0.6,3.7v14.7
			c0,1.3,0.1,2.8,0.4,4.5c0.2,1.7,0.7,3,1.3,4c0.6,0.9,1.5,1.7,2.7,2.3c1.2,0.6,2.6,0.9,4.4,0.9c2.2,0,4.2-0.5,5.9-1.4
			c1.7-1,2.9-2.2,3.6-3.7s1-4,1-7.6v-13.7c0-2.1-0.2-3.4-0.7-4c-0.6-0.7-1.6-1.1-2.9-1.1H509.5z"/>
		<path d="M555.9,218.8v-0.9h11.9v0.9h-1.3c-1.3,0-2.3,0.6-3.1,1.7c-0.3,0.5-0.5,1.7-0.5,3.6v13.7c0,3.4-0.3,6-1,7.9
			c-0.7,1.9-2,3.5-4,4.8c-2,1.3-4.6,2-8,2c-3.7,0-6.5-0.6-8.4-1.9c-1.9-1.3-3.3-3-4.1-5.1c-0.5-1.5-0.8-4.2-0.8-8.3v-13.2
			c0-2.1-0.3-3.4-0.9-4.1s-1.5-1-2.8-1h-1.3v-0.9h14.6v0.9h-1.3c-1.4,0-2.4,0.4-3,1.3c-0.4,0.6-0.6,1.8-0.6,3.7v14.7
			c0,1.3,0.1,2.8,0.4,4.5c0.2,1.7,0.7,3,1.3,4c0.6,0.9,1.5,1.7,2.7,2.3c1.2,0.6,2.6,0.9,4.4,0.9c2.2,0,4.2-0.5,5.9-1.4
			c1.7-1,2.9-2.2,3.6-3.7s1-4,1-7.6v-13.7c0-2.1-0.2-3.4-0.7-4c-0.6-0.7-1.6-1.1-2.9-1.1H555.9z"/>
		<path d="M567.3,217.8h9.2l20.6,25.3v-19.4c0-2.1-0.2-3.4-0.7-3.9c-0.6-0.7-1.6-1-2.9-1h-1.2v-0.9H604v0.9h-1.2
			c-1.4,0-2.4,0.4-3,1.3c-0.4,0.5-0.5,1.7-0.5,3.6v28.4h-0.9l-22.2-27.2v20.8c0,2.1,0.2,3.4,0.7,3.9c0.6,0.7,1.6,1,2.9,1h1.2v0.9
			h-11.7v-0.9h1.2c1.4,0,2.5-0.4,3.1-1.3c0.4-0.5,0.5-1.7,0.5-3.6v-23.4c-1-1.1-1.7-1.9-2.2-2.3c-0.5-0.4-1.2-0.7-2.2-1
			c-0.5-0.1-1.2-0.2-2.2-0.2V217.8z"/>
		<path d="M620,250.6v0.9h-14.4v-0.9h1.2c1.4,0,2.4-0.4,3-1.2c0.4-0.5,0.6-1.8,0.6-3.8v-21.8c0-1.7-0.1-2.8-0.3-3.4
			c-0.2-0.4-0.5-0.8-1-1.1c-0.7-0.4-1.5-0.6-2.3-0.6h-1.2v-0.9H620v0.9h-1.2c-1.4,0-2.4,0.4-3,1.2c-0.4,0.5-0.6,1.8-0.6,3.8v21.8
			c0,1.7,0.1,2.8,0.3,3.4c0.2,0.4,0.5,0.8,1,1.1c0.7,0.4,1.5,0.6,2.3,0.6H620z"/>
		<path d="M656.9,217.8v0.9c-1.2,0.2-2.1,0.6-2.7,1.1c-0.9,0.8-1.7,2.1-2.3,3.7l-11.8,28.7h-0.9l-12.6-29.1
			c-0.6-1.5-1.1-2.4-1.4-2.7c-0.4-0.5-0.9-0.9-1.5-1.2c-0.6-0.3-1.4-0.5-2.4-0.6v-0.9h13.8v0.9c-1.6,0.1-2.6,0.4-3,0.8
			c-0.5,0.4-0.7,0.9-0.7,1.5c0,0.8,0.4,2.1,1.1,3.9l8.6,19.8l8-19.5c0.8-1.9,1.2-3.3,1.2-4c0-0.5-0.2-0.9-0.7-1.4
			c-0.5-0.4-1.3-0.8-2.4-0.9c-0.1,0-0.2,0-0.4-0.1v-0.9H656.9z"/>
		<path d="M667.6,219.7V233h7.4c1.9,0,3.2-0.3,3.9-0.9c0.9-0.8,1.3-2.1,1.4-4h0.9v11.7h-0.9c-0.2-1.6-0.5-2.7-0.7-3.2
			c-0.3-0.6-0.8-1-1.5-1.4c-0.7-0.3-1.7-0.5-3.1-0.5h-7.4v11.1c0,1.5,0.1,2.4,0.2,2.7c0.1,0.3,0.4,0.6,0.7,0.8s1,0.3,1.9,0.3h5.7
			c1.9,0,3.3-0.1,4.2-0.4c0.9-0.3,1.7-0.8,2.5-1.6c1-1,2.1-2.6,3.2-4.7h1l-2.9,8.5h-26v-0.9h1.2c0.8,0,1.5-0.2,2.3-0.6
			c0.5-0.3,0.9-0.7,1.1-1.2c0.2-0.5,0.3-1.6,0.3-3.3v-21.9c0-2.1-0.2-3.5-0.6-4c-0.6-0.7-1.6-1-3-1h-1.2v-0.9h26l0.4,7.4h-1
			c-0.3-1.8-0.7-3-1.2-3.7s-1-1.2-1.9-1.5c-0.7-0.2-1.8-0.4-3.5-0.4H667.6z"/>
		<path d="M722,251.6h-9l-11.4-15.8c-0.8,0-1.5,0-2.1,0c-0.2,0-0.4,0-0.7,0c-0.2,0-0.5,0-0.8,0v9.8c0,2.1,0.2,3.4,0.7,4
			c0.6,0.7,1.6,1.1,2.8,1.1h1.3v0.9h-14.4v-0.9h1.3c1.4,0,2.4-0.5,3.1-1.4c0.3-0.5,0.5-1.7,0.5-3.7v-21.8c0-2.1-0.2-3.4-0.7-4
			c-0.6-0.7-1.6-1.1-2.9-1.1h-1.3v-0.9h12.3c3.6,0,6.2,0.3,7.9,0.8c1.7,0.5,3.1,1.5,4.3,2.9c1.2,1.4,1.8,3.1,1.8,5
			c0,2.1-0.7,3.9-2,5.4c-1.4,1.5-3.4,2.6-6.3,3.2l7,9.7c1.6,2.2,3,3.7,4.1,4.4c1.1,0.7,2.6,1.2,4.5,1.4V251.6z M698.1,234.2
			c0.3,0,0.6,0,0.8,0c0.2,0,0.4,0,0.6,0c3.2,0,5.6-0.7,7.3-2.1c1.6-1.4,2.5-3.2,2.5-5.3c0-2.1-0.7-3.8-2-5.1c-1.3-1.3-3.1-2-5.2-2
			c-1,0-2.3,0.2-3.9,0.5V234.2z"/>
		<path d="M744.5,217.1v11.7h-0.9c-0.3-2.2-0.8-4-1.6-5.3s-1.9-2.4-3.3-3.2s-2.9-1.2-4.4-1.2c-1.7,0-3.1,0.5-4.3,1.6
			c-1.1,1.1-1.7,2.3-1.7,3.6c0,1,0.4,2,1.1,2.8c1,1.2,3.5,2.9,7.3,5c3.1,1.7,5.3,3,6.5,3.9c1.2,0.9,2,2,2.7,3.2
			c0.6,1.2,0.9,2.5,0.9,3.9c0,2.6-1,4.8-3,6.6c-2,1.8-4.5,2.8-7.6,2.8c-1,0-1.9-0.1-2.8-0.2c-0.5-0.1-1.6-0.4-3.2-0.9
			c-1.6-0.5-2.6-0.8-3.1-0.8c-0.4,0-0.7,0.1-1,0.4c-0.2,0.2-0.4,0.8-0.5,1.5h-0.9v-11.6h0.9c0.4,2.4,1,4.2,1.7,5.4s1.8,2.2,3.3,3
			c1.5,0.8,3.1,1.2,4.9,1.2c2.1,0,3.7-0.5,4.9-1.6c1.2-1.1,1.8-2.4,1.8-3.9c0-0.8-0.2-1.7-0.7-2.5c-0.5-0.8-1.2-1.6-2.1-2.4
			c-0.6-0.5-2.4-1.6-5.3-3.2c-2.9-1.6-4.9-2.9-6.2-3.9c-1.2-1-2.1-2-2.8-3.2s-0.9-2.4-0.9-3.8c0-2.4,0.9-4.5,2.8-6.3
			c1.9-1.7,4.2-2.6,7.1-2.6c1.8,0,3.7,0.4,5.7,1.3c0.9,0.4,1.6,0.6,2,0.6c0.4,0,0.8-0.1,1.1-0.4c0.3-0.3,0.5-0.8,0.7-1.6H744.5z"/>
		<path d="M764.7,250.6v0.9h-14.4v-0.9h1.2c1.4,0,2.4-0.4,3-1.2c0.4-0.5,0.6-1.8,0.6-3.8v-21.8c0-1.7-0.1-2.8-0.3-3.4
			c-0.2-0.4-0.5-0.8-1-1.1c-0.7-0.4-1.5-0.6-2.3-0.6h-1.2v-0.9h14.4v0.9h-1.2c-1.4,0-2.4,0.4-3,1.2c-0.4,0.5-0.6,1.8-0.6,3.8v21.8
			c0,1.7,0.1,2.8,0.3,3.4c0.2,0.4,0.5,0.8,1,1.1c0.7,0.4,1.5,0.6,2.3,0.6H764.7z"/>
		<path d="M794.9,217.8l0.4,7.9h-0.9c-0.2-1.4-0.4-2.4-0.7-3c-0.5-1-1.2-1.7-2.1-2.1s-2-0.7-3.4-0.7h-4.8v25.8
			c0,2.1,0.2,3.4,0.7,3.9c0.6,0.7,1.6,1,2.9,1h1.2v0.9h-14.3v-0.9h1.2c1.4,0,2.4-0.4,3-1.3c0.4-0.5,0.5-1.7,0.5-3.6V220h-4.1
			c-1.6,0-2.7,0.1-3.4,0.3c-0.9,0.3-1.6,0.9-2.2,1.8s-1,2.1-1.1,3.6H767l0.4-7.9H794.9z"/>
		<path d="M820.3,217.8h11.8v0.9h-0.6c-0.4,0-1.1,0.2-1.9,0.6c-0.8,0.4-1.6,0.9-2.3,1.6s-1.5,1.9-2.5,3.5l-8.1,12.8v8.5
			c0,2.1,0.2,3.4,0.7,3.9c0.6,0.7,1.6,1,3,1h1.1v0.9h-14.3v-0.9h1.2c1.4,0,2.4-0.4,3-1.3c0.4-0.5,0.5-1.7,0.5-3.6v-8l-9.3-14.1
			c-1.1-1.7-1.8-2.7-2.2-3.1c-0.4-0.4-1.2-0.9-2.4-1.5c-0.3-0.2-0.8-0.2-1.4-0.2v-0.9h14.4v0.9h-0.7c-0.8,0-1.5,0.2-2.2,0.5
			s-1,0.9-1,1.6c0,0.6,0.5,1.7,1.5,3.2l7,10.9l6.6-10.4c1-1.6,1.5-2.7,1.5-3.5c0-0.5-0.1-0.9-0.4-1.2c-0.2-0.4-0.6-0.7-1-0.9
			c-0.4-0.2-1.1-0.3-2-0.3V217.8z"/>
		<path d="M859.3,217.1c4.4,0,8.2,1.7,11.4,5c3.2,3.3,4.8,7.5,4.8,12.4c0,5.1-1.6,9.4-4.8,12.8s-7.1,5.1-11.7,5.1
			c-4.6,0-8.5-1.6-11.7-4.9s-4.7-7.6-4.7-12.8c0-5.4,1.8-9.7,5.5-13.1C851.1,218.5,854.9,217.1,859.3,217.1z M858.8,218.9
			c-3,0-5.4,1.1-7.3,3.4c-2.3,2.8-3.4,6.9-3.4,12.2c0,5.5,1.2,9.7,3.5,12.7c1.8,2.3,4.2,3.4,7.2,3.4c3.2,0,5.8-1.2,7.8-3.7
			c2.1-2.5,3.1-6.4,3.1-11.7c0-5.8-1.1-10.1-3.4-12.9C864.5,220,862,218.9,858.8,218.9z"/>
		<path d="M887.4,219.7v13.3h6.1c1.4,0,2.4-0.3,3.1-0.9s1.1-1.9,1.3-3.7h0.9v11.4h-0.9c0-1.3-0.2-2.3-0.5-2.9
			c-0.3-0.6-0.8-1.1-1.3-1.4c-0.6-0.3-1.4-0.5-2.5-0.5h-6.1v10.6c0,1.7,0.1,2.8,0.3,3.4c0.2,0.4,0.5,0.8,1,1.1
			c0.7,0.4,1.5,0.6,2.3,0.6h1.2v0.9h-14.5v-0.9h1.2c1.4,0,2.4-0.4,3-1.2c0.4-0.5,0.6-1.8,0.6-3.8v-21.8c0-1.7-0.1-2.8-0.3-3.4
			c-0.2-0.4-0.5-0.8-1-1.1c-0.7-0.4-1.5-0.6-2.3-0.6h-1.2v-0.9h25.1l0.3,7.4h-0.9c-0.4-1.6-0.9-2.7-1.5-3.5
			c-0.6-0.7-1.3-1.3-2.1-1.6c-0.8-0.3-2.1-0.5-3.9-0.5H887.4z"/>
		<path d="M943.7,217.8l0.4,7.9h-0.9c-0.2-1.4-0.4-2.4-0.7-3c-0.5-1-1.2-1.7-2.1-2.1s-2-0.7-3.4-0.7h-4.8v25.8
			c0,2.1,0.2,3.4,0.7,3.9c0.6,0.7,1.6,1,2.9,1h1.2v0.9h-14.3v-0.9h1.2c1.4,0,2.4-0.4,3-1.3c0.4-0.5,0.5-1.7,0.5-3.6V220h-4.1
			c-1.6,0-2.7,0.1-3.4,0.3c-0.9,0.3-1.6,0.9-2.2,1.8s-1,2.1-1.1,3.6h-0.9l0.4-7.9H943.7z"/>
		<path d="M955.5,219.7V233h7.4c1.9,0,3.2-0.3,3.9-0.9c0.9-0.8,1.3-2.1,1.4-4h0.9v11.7h-0.9c-0.2-1.6-0.5-2.7-0.7-3.2
			c-0.3-0.6-0.8-1-1.5-1.4c-0.7-0.3-1.7-0.5-3.1-0.5h-7.4v11.1c0,1.5,0.1,2.4,0.2,2.7c0.1,0.3,0.4,0.6,0.7,0.8s1,0.3,1.9,0.3h5.7
			c1.9,0,3.3-0.1,4.2-0.4c0.9-0.3,1.7-0.8,2.5-1.6c1-1,2.1-2.6,3.2-4.7h1l-2.9,8.5h-26v-0.9h1.2c0.8,0,1.5-0.2,2.3-0.6
			c0.5-0.3,0.9-0.7,1.1-1.2c0.2-0.5,0.3-1.6,0.3-3.3v-21.9c0-2.1-0.2-3.5-0.6-4c-0.6-0.7-1.6-1-3-1h-1.2v-0.9h26l0.4,7.4h-1
			c-0.3-1.8-0.7-3-1.2-3.7s-1-1.2-1.9-1.5c-0.7-0.2-1.8-0.4-3.5-0.4H955.5z"/>
		<path d="M1006.2,217.1l0.8,11.5h-0.8c-1-3.4-2.5-5.9-4.4-7.4c-1.9-1.5-4.2-2.3-6.9-2.3c-2.2,0-4.3,0.6-6.1,1.7
			c-1.8,1.1-3.2,2.9-4.3,5.4c-1,2.5-1.6,5.6-1.6,9.3c0,3.1,0.5,5.7,1.5,7.9c1,2.2,2.5,4,4.4,5.1c2,1.2,4.2,1.8,6.7,1.8
			c2.2,0,4.1-0.5,5.8-1.4s3.5-2.8,5.5-5.6l0.8,0.5c-1.7,3-3.7,5.2-5.9,6.6s-4.9,2.1-8,2.1c-5.6,0-9.9-2.1-13-6.2
			c-2.3-3.1-3.4-6.7-3.4-10.9c0-3.4,0.8-6.5,2.3-9.3c1.5-2.8,3.6-5,6.2-6.6s5.5-2.3,8.7-2.3c2.4,0,4.8,0.6,7.2,1.8
			c0.7,0.4,1.2,0.5,1.5,0.5c0.4,0,0.8-0.2,1.2-0.5c0.4-0.4,0.7-1.1,0.9-1.9H1006.2z"/>
		<path d="M1019.5,233.5h15.7v-9.6c0-1.7-0.1-2.9-0.3-3.4c-0.2-0.4-0.5-0.8-1-1.1c-0.7-0.4-1.5-0.6-2.3-0.6h-1.2v-0.9h14.4v0.9h-1.2
			c-0.8,0-1.5,0.2-2.3,0.6c-0.5,0.3-0.9,0.7-1.1,1.2c-0.2,0.5-0.3,1.6-0.3,3.3v21.8c0,1.7,0.1,2.8,0.3,3.4c0.2,0.4,0.5,0.8,1,1.1
			c0.7,0.4,1.5,0.6,2.3,0.6h1.2v0.9h-14.4v-0.9h1.2c1.4,0,2.4-0.4,3-1.2c0.4-0.5,0.6-1.8,0.6-3.8v-10.3h-15.7v10.3
			c0,1.7,0.1,2.8,0.3,3.4c0.2,0.4,0.5,0.8,1,1.1c0.7,0.4,1.5,0.6,2.3,0.6h1.2v0.9h-14.4v-0.9h1.2c1.4,0,2.4-0.4,3-1.2
			c0.4-0.5,0.6-1.8,0.6-3.8v-21.8c0-1.7-0.1-2.9-0.3-3.4c-0.2-0.4-0.5-0.8-1-1.1c-0.7-0.4-1.5-0.6-2.3-0.6h-1.2v-0.9h14.4v0.9h-1.2
			c-0.8,0-1.6,0.2-2.3,0.6c-0.5,0.3-0.9,0.7-1.1,1.2c-0.2,0.5-0.3,1.6-0.3,3.3V233.5z"/>
		<path d="M1044.6,217.8h9.2l20.6,25.3v-19.4c0-2.1-0.2-3.4-0.7-3.9c-0.6-0.7-1.6-1-2.9-1h-1.2v-0.9h11.7v0.9h-1.2
			c-1.4,0-2.4,0.4-3,1.3c-0.4,0.5-0.5,1.7-0.5,3.6v28.4h-0.9l-22.2-27.2v20.8c0,2.1,0.2,3.4,0.7,3.9c0.6,0.7,1.6,1,2.9,1h1.2v0.9
			h-11.7v-0.9h1.2c1.4,0,2.5-0.4,3.1-1.3c0.4-0.5,0.5-1.7,0.5-3.6v-23.4c-1-1.1-1.7-1.9-2.2-2.3s-1.2-0.7-2.2-1
			c-0.5-0.1-1.2-0.2-2.2-0.2V217.8z"/>
		<path d="M1100.2,217.1c4.4,0,8.2,1.7,11.4,5c3.2,3.3,4.8,7.5,4.8,12.4c0,5.1-1.6,9.4-4.8,12.8s-7.1,5.1-11.7,5.1
			c-4.6,0-8.5-1.6-11.7-4.9s-4.7-7.6-4.7-12.8c0-5.4,1.8-9.7,5.5-13.1C1092,218.5,1095.8,217.1,1100.2,217.1z M1099.7,218.9
			c-3,0-5.4,1.1-7.3,3.4c-2.3,2.8-3.4,6.9-3.4,12.2c0,5.5,1.2,9.7,3.5,12.7c1.8,2.3,4.2,3.4,7.2,3.4c3.2,0,5.8-1.2,7.8-3.7
			c2.1-2.5,3.1-6.4,3.1-11.7c0-5.8-1.1-10.1-3.4-12.9C1105.5,220,1102.9,218.9,1099.7,218.9z"/>
		<path d="M1147.1,242.2l0.8,0.2l-2.9,9.2h-26.1v-0.9h1.3c1.4,0,2.4-0.5,3.1-1.4c0.3-0.5,0.5-1.8,0.5-3.7v-21.8c0-2.1-0.2-3.4-0.7-4
			c-0.6-0.7-1.6-1.1-2.9-1.1h-1.3v-0.9h15.3v0.9c-1.8,0-3,0.1-3.8,0.5c-0.7,0.3-1.2,0.8-1.5,1.3c-0.3,0.5-0.4,1.8-0.4,3.8v21.2
			c0,1.4,0.1,2.3,0.4,2.8c0.2,0.3,0.5,0.6,0.9,0.8c0.4,0.2,1.7,0.2,3.9,0.2h2.5c2.6,0,4.4-0.2,5.4-0.6c1-0.4,2-1.1,2.9-2
			S1146.2,244.3,1147.1,242.2z"/>
		<path d="M1167.1,217.1c4.4,0,8.2,1.7,11.4,5c3.2,3.3,4.8,7.5,4.8,12.4c0,5.1-1.6,9.4-4.8,12.8s-7.1,5.1-11.7,5.1
			c-4.6,0-8.5-1.6-11.7-4.9s-4.7-7.6-4.7-12.8c0-5.4,1.8-9.7,5.5-13.1C1158.9,218.5,1162.7,217.1,1167.1,217.1z M1166.6,218.9
			c-3,0-5.4,1.1-7.3,3.4c-2.3,2.8-3.4,6.9-3.4,12.2c0,5.5,1.2,9.7,3.5,12.7c1.8,2.3,4.2,3.4,7.2,3.4c3.2,0,5.8-1.2,7.8-3.7
			c2.1-2.5,3.1-6.4,3.1-11.7c0-5.8-1.1-10.1-3.4-12.9C1172.4,220,1169.9,218.9,1166.6,218.9z"/>
		<path d="M1216,217.1l0.9,10.6h-0.9c-0.9-2.7-2-4.7-3.4-6c-2-1.9-4.6-2.9-7.7-2.9c-4.3,0-7.6,1.7-9.8,5.1
			c-1.9,2.9-2.8,6.3-2.8,10.2c0,3.2,0.6,6.2,1.9,8.8s2.9,4.6,4.9,5.8c2,1.2,4.1,1.9,6.2,1.9c1.2,0,2.4-0.2,3.6-0.5
			c1.2-0.3,2.3-0.8,3.4-1.4V239c0-1.7-0.1-2.8-0.4-3.3c-0.3-0.5-0.7-0.9-1.2-1.2c-0.5-0.3-1.5-0.4-2.8-0.4v-0.9h13.1v0.9h-0.6
			c-1.3,0-2.2,0.4-2.7,1.3c-0.3,0.6-0.5,1.8-0.5,3.6v10.3c-1.9,1-3.8,1.8-5.6,2.3c-1.9,0.5-3.9,0.7-6.2,0.7
			c-6.5,0-11.5-2.1-14.8-6.3c-2.5-3.1-3.8-6.7-3.8-10.8c0-3,0.7-5.8,2.1-8.5c1.7-3.2,4-5.7,7-7.5c2.5-1.4,5.4-2.2,8.8-2.2
			c1.2,0,2.3,0.1,3.3,0.3c1,0.2,2.4,0.6,4.3,1.3c0.9,0.3,1.5,0.5,1.9,0.5c0.3,0,0.6-0.1,0.8-0.4c0.2-0.3,0.4-0.9,0.4-1.7H1216z"/>
		<path d="M1245.3,217.8h11.8v0.9h-0.6c-0.4,0-1.1,0.2-1.9,0.6c-0.8,0.4-1.6,0.9-2.3,1.6s-1.5,1.9-2.5,3.5l-8.1,12.8v8.5
			c0,2.1,0.2,3.4,0.7,3.9c0.6,0.7,1.6,1,3,1h1.1v0.9h-14.3v-0.9h1.2c1.4,0,2.4-0.4,3-1.3c0.4-0.5,0.5-1.7,0.5-3.6v-8l-9.3-14.1
			c-1.1-1.7-1.8-2.7-2.2-3.1c-0.4-0.4-1.2-0.9-2.4-1.5c-0.3-0.2-0.8-0.2-1.4-0.2v-0.9h14.4v0.9h-0.7c-0.8,0-1.5,0.2-2.2,0.5
			s-1,0.9-1,1.6c0,0.6,0.5,1.7,1.5,3.2l7,10.9l6.6-10.4c1-1.6,1.5-2.7,1.5-3.5c0-0.5-0.1-0.9-0.4-1.2c-0.2-0.4-0.6-0.7-1-0.9
			c-0.4-0.2-1.1-0.3-2-0.3V217.8z"/>
	</g>
	<g>
		<path class="st6" d="M24.5,144.7l0.4,0l0.1,6.8l-0.4,0l0-0.6c0-0.7-0.2-1.1-0.6-1.4c-0.3-0.2-0.9-0.3-1.8-0.3l-7.8,0.1
			c-1.2,0-2.2-0.1-2.9-0.4c-0.7-0.2-1.4-0.7-2-1.3c-0.6-0.6-0.8-1.4-0.9-2.3c0-0.7,0.2-1.3,0.5-1.7c0.4-0.4,0.8-0.6,1.2-0.6
			c0.4,0,0.7,0.1,0.9,0.3c0.2,0.3,0.4,0.5,0.4,0.9c0,0.2-0.1,0.5-0.2,0.7c-0.2,0.2-0.6,0.5-1.3,0.8c-0.4,0.2-0.6,0.4-0.6,0.7
			c0,0.2,0.1,0.4,0.4,0.6c0.3,0.2,0.7,0.3,1.4,0.3l10.9-0.2c0.8,0,1.3-0.1,1.6-0.2c0.2-0.1,0.4-0.2,0.5-0.5c0.2-0.3,0.3-0.7,0.3-1.1
			L24.5,144.7L24.5,144.7z M10,158.6l0-0.6c0-0.4,0-0.7,0.2-1.1c0.1-0.3,0.3-0.4,0.5-0.5c0.2-0.1,0.8-0.2,1.6-0.2l10.3-0.6
			c1-0.1,1.6,0,1.8,0.2c0.4,0.3,0.6,0.7,0.7,1.4l0,0.6l0.4,0l-0.4-6.8l-0.4,0l0,0.6c0,0.4,0,0.7-0.2,1.1c-0.1,0.3-0.3,0.4-0.5,0.5
			c-0.2,0.1-0.8,0.2-1.6,0.2l-10.3,0.6c-1,0.1-1.6,0-1.8-0.2c-0.4-0.3-0.6-0.7-0.7-1.4l0-0.6l-0.4,0l0.4,6.8L10,158.6L10,158.6z
			 M15.9,169l-0.6-6.1l-2.6-0.8c-0.6-0.2-1.1-0.3-1.4-0.3c-0.2,0-0.4,0.2-0.6,0.4c-0.2,0.2-0.2,0.8-0.2,1.5l-0.4,0l-0.5-5l0.4,0
			c0.2,0.7,0.4,1.1,0.6,1.2c0.4,0.4,1.2,0.7,2.4,1.1l13.6,4.4l0,0.4L14,172.6c-1,0.5-1.7,1-1.9,1.4c-0.3,0.4-0.4,0.9-0.4,1.6l-0.4,0
			l-0.6-6.2l0.4,0c0.1,0.6,0.2,1,0.4,1.2c0.2,0.2,0.4,0.3,0.7,0.3c0.3,0,0.9-0.2,1.6-0.6L15.9,169L15.9,169z M16.7,168.6l6.1-3.3
			l-6.6-2.1L16.7,168.6L16.7,168.6z M27.1,172.1l-0.4,0.1c0.1,0.5,0.1,0.8,0.1,1c-0.1,0.5-0.2,0.8-0.3,1.1c-0.1,0.3-0.4,0.7-0.9,1.2
			l-10.9,1.9c-0.9,0.2-1.5,0.2-1.7,0c-0.5-0.2-0.7-0.7-0.9-1.3l-0.1-0.6l-0.4,0.1l1,5.5l0.4-0.1l-0.1-0.6c-0.1-0.6,0-1.1,0.2-1.5
			c0.2-0.3,0.8-0.5,1.8-0.6l9.7-1.7l-10.8,12.5l0.1,0.4l13.2-2.3c0.9-0.2,1.5-0.2,1.7,0c0.5,0.2,0.7,0.7,0.9,1.3l0.1,0.6l0.4-0.1
			l-1-5.5l-0.4,0.1l0.1,0.6c0.1,0.6,0,1.1-0.2,1.5c-0.2,0.3-0.8,0.5-1.8,0.6l-9.1,1.6l10.1-11.6L27.1,172.1L27.1,172.1z M33.8,201.8
			l-4.8,1.6l-0.1-0.4c1.1-0.7,1.9-1.5,2.3-2.2c0.6-1.1,0.8-2.4,0.4-3.9c-0.5-2-1.7-3.2-3.5-3.9c-1.5-0.5-3.2-0.5-5-0.1
			c-1.5,0.4-2.7,1-3.8,1.9c-1.1,0.9-1.8,1.8-2.1,2.9c-0.3,1.1-0.4,2.1-0.1,3c0.1,0.6,0.4,1.1,0.6,1.6c0.3,0.5,0.6,0.9,1,1.4l4.5-1.1
			c0.8-0.2,1.3-0.4,1.5-0.6c0.2-0.2,0.3-0.4,0.4-0.7c0.1-0.3,0-0.7-0.1-1.4l0.4-0.1l1.5,6l-0.4,0.1l-0.1-0.3
			c-0.2-0.6-0.5-0.9-0.9-1.1c-0.3-0.1-0.9,0-1.7,0.2l-4.7,1.2c-0.7-0.7-1.3-1.5-1.7-2.3c-0.4-0.8-0.8-1.7-1.1-2.7
			c-0.8-3-0.4-5.5,1.1-7.5c1.1-1.5,2.6-2.5,4.5-3c1.4-0.3,2.7-0.4,4.1,0c1.7,0.4,3.1,1.2,4.2,2.3c0.9,1,1.6,2.2,2,3.7
			c0.1,0.6,0.2,1.1,0.3,1.6c0,0.5,0,1.2-0.1,2.1c-0.1,0.5-0.1,0.8,0,0.9c0,0.1,0.1,0.2,0.3,0.3c0.2,0.1,0.4,0.1,0.8,0L33.8,201.8
			L33.8,201.8z M37.8,212.9l-0.1-0.4c-0.4,0-0.6,0-0.8-0.1c-0.2-0.1-0.3-0.2-0.3-0.4c-0.1-0.2-0.1-0.5,0-1c0.1-1,0-1.9-0.3-2.7
			c-0.4-1.3-1.2-2.2-2.3-2.8c-1.1-0.6-2.1-0.7-3.2-0.3c-0.6,0.2-1.1,0.6-1.6,1c-0.4,0.5-0.8,1-1,1.7c-0.2,0.7-0.5,1.8-0.8,3.3
			c-0.3,1.5-0.5,2.5-0.6,2.9c-0.2,0.5-0.4,1-0.7,1.3c-0.3,0.3-0.6,0.6-1,0.7c-0.7,0.2-1.3,0.2-2-0.2c-0.7-0.4-1.2-1-1.5-1.9
			c-0.3-0.8-0.3-1.6-0.2-2.4c0.1-0.8,0.4-1.4,0.8-2c0.4-0.5,1.1-1,2.2-1.6l-0.1-0.4l-5.2,1.8l0.1,0.4c0.4-0.1,0.6-0.1,0.8,0
			c0.1,0.1,0.3,0.2,0.3,0.4c0.1,0.2,0.1,0.7,0.1,1.5c0,0.8,0,1.3,0.1,1.6c0.1,0.4,0.2,0.8,0.3,1.3c0.5,1.4,1.3,2.4,2.4,3
			c1.1,0.6,2.3,0.7,3.4,0.3c0.6-0.2,1.1-0.5,1.6-1c0.5-0.5,0.8-1,1-1.7c0.2-0.7,0.5-1.8,0.7-3.5c0.3-2,0.7-3.4,1.1-4
			c0.3-0.4,0.6-0.8,1.1-0.9c0.6-0.2,1.2-0.1,1.9,0.2c0.6,0.3,1.1,0.9,1.4,1.7c0.2,0.7,0.3,1.4,0.2,2.2c-0.1,0.8-0.4,1.4-0.9,2
			c-0.5,0.5-1.2,1.1-2.1,1.5l0.1,0.4L37.8,212.9L37.8,212.9z M41.8,223.6l0.4-0.2l2.4,5.1l-0.4,0.2l-0.3-0.5c-0.3-0.6-0.7-0.9-1.3-1
			c-0.3,0-0.8,0.1-1.6,0.5l-5.8,2.7c-1.4,0.7-2.6,1.1-3.6,1.1c-0.9,0.1-1.9-0.2-2.8-0.7c-1-0.6-1.8-1.6-2.5-3c-0.7-1.6-1-2.9-0.9-4
			c0.2-1.1,0.6-2,1.4-2.8c0.5-0.5,1.7-1.2,3.4-2l5.6-2.6c0.9-0.4,1.4-0.8,1.6-1.2c0.2-0.4,0.1-0.8-0.1-1.4l-0.3-0.5l0.4-0.2l2.9,6.2
			l-0.4,0.2l-0.3-0.6c-0.3-0.6-0.7-0.9-1.2-1c-0.3-0.1-0.9,0.1-1.7,0.5l-6.3,2.9c-0.6,0.3-1.2,0.6-1.9,1.1c-0.7,0.4-1.1,0.9-1.4,1.3
			c-0.3,0.5-0.4,1-0.5,1.6c0,0.6,0.1,1.3,0.5,2c0.4,0.9,1,1.7,1.8,2.2c0.8,0.6,1.5,0.8,2.3,0.8c0.8,0,1.9-0.4,3.4-1.1l5.8-2.7
			c0.9-0.4,1.4-0.8,1.5-1.1c0.2-0.4,0.1-0.9-0.1-1.4L41.8,223.6L41.8,223.6z M54.5,244.6l0.3-0.3l3.3,4.5l-0.3,0.3l-0.4-0.5
			c-0.4-0.5-0.9-0.7-1.5-0.7c-0.3,0-0.8,0.3-1.5,0.8l-5.2,3.8c-1.3,0.9-2.4,1.5-3.3,1.8c-0.9,0.3-1.9,0.2-2.9-0.2
			c-1.1-0.4-2-1.2-3-2.5c-1-1.4-1.5-2.6-1.6-3.7c0-1.1,0.2-2.1,0.8-3c0.4-0.6,1.4-1.5,2.9-2.6l5-3.7c0.8-0.6,1.2-1.1,1.3-1.5
			c0.1-0.4,0-0.8-0.4-1.3l-0.4-0.5l0.3-0.3l4,5.6l-0.3,0.3l-0.4-0.5c-0.4-0.5-0.8-0.8-1.3-0.8c-0.3,0-0.9,0.3-1.6,0.8l-5.6,4.1
			c-0.5,0.4-1,0.8-1.6,1.4c-0.6,0.6-1,1.1-1.1,1.6c-0.2,0.5-0.2,1.1-0.1,1.7c0.1,0.6,0.4,1.3,0.9,1.9c0.6,0.8,1.3,1.5,2.2,1.9
			c0.8,0.4,1.6,0.5,2.4,0.3c0.7-0.2,1.8-0.8,3.2-1.7l5.2-3.8c0.8-0.6,1.2-1,1.3-1.4c0.1-0.4,0-0.9-0.4-1.4L54.5,244.6L54.5,244.6z
			 M56.7,247l-0.3,0.3c0.3,0.3,0.5,0.6,0.6,0.8c0.2,0.4,0.3,0.8,0.3,1.1c0,0.3,0,0.8-0.1,1.5l-8.2,7.4c-0.7,0.6-1.1,0.9-1.4,1
			c-0.5,0.1-1-0.2-1.4-0.7l-0.4-0.4l-0.3,0.3l3.7,4.2l0.3-0.3l-0.4-0.4c-0.4-0.5-0.6-0.9-0.6-1.4c0-0.3,0.4-0.8,1.1-1.5l7.3-6.6
			l-2.5,16.4l0.3,0.3l10-9c0.7-0.6,1.1-0.9,1.4-1c0.5-0.1,1,0.2,1.4,0.7l0.4,0.4l0.3-0.3l-3.7-4.2l-0.3,0.3l0.4,0.4
			c0.4,0.5,0.6,0.9,0.6,1.4c0,0.3-0.4,0.8-1.1,1.5l-6.8,6.2l2.3-15.2L56.7,247L56.7,247z M62.3,274.8l-0.3,0.3l-5-4.6l0.3-0.3
			l0.4,0.4c0.5,0.4,1,0.6,1.4,0.5c0.3-0.1,0.8-0.4,1.4-1.1l6.9-7.6c0.5-0.6,0.9-1,1-1.3c0.1-0.2,0.1-0.4,0-0.7
			c-0.1-0.4-0.3-0.7-0.6-0.9l-0.4-0.4l0.3-0.3l5,4.6l-0.3,0.3l-0.4-0.4c-0.5-0.4-1-0.6-1.4-0.5c-0.3,0.1-0.8,0.4-1.4,1.1l-6.9,7.6
			c-0.5,0.6-0.9,1-1,1.3c-0.1,0.2-0.1,0.4,0,0.7c0.1,0.4,0.3,0.7,0.6,0.9L62.3,274.8L62.3,274.8z M85,272.5l-3.9-2.9l-0.3,0.3
			c0.1,0.1,0.1,0.1,0.1,0.1c0.4,0.4,0.6,0.7,0.7,1c0.1,0.3,0,0.5-0.1,0.7c-0.2,0.3-0.7,0.7-1.6,1.2l-8.5,5.2l2.3-9.9
			c0.2-0.9,0.4-1.5,0.6-1.8c0.2-0.2,0.4-0.3,0.7-0.4c0.3,0,0.7,0.2,1.4,0.5l0.3-0.3l-5.2-3.8l-0.3,0.3c0.4,0.3,0.6,0.6,0.8,0.9
			c0.1,0.3,0.2,0.6,0.2,0.9c0,0.2-0.1,0.7-0.2,1.4l-3.3,14.6L69,281l12.5-7.6c0.7-0.5,1.4-0.7,1.9-0.8c0.4,0,0.8,0.1,1.4,0.3
			L85,272.5L85,272.5z M87.4,274.7l-3.2,5.4l3,1.8c0.8,0.5,1.4,0.7,1.8,0.6c0.5-0.1,1.1-0.5,1.6-1.3l0.4,0.2l-2.8,4.8l-0.4-0.2
			c0.3-0.7,0.5-1.2,0.5-1.5c0-0.3-0.1-0.6-0.3-0.9c-0.2-0.3-0.6-0.6-1.1-1l-3-1.8l-2.7,4.5c-0.4,0.6-0.6,1-0.6,1.1
			c0,0.2,0,0.3,0.1,0.5c0.1,0.2,0.3,0.4,0.7,0.6l2.3,1.4c0.8,0.5,1.4,0.7,1.8,0.8c0.4,0.1,0.9,0.1,1.4,0c0.7-0.2,1.5-0.5,2.4-1.1
			l0.4,0.2l-3.2,2.7l-10.5-6.3l0.2-0.4l0.5,0.3c0.3,0.2,0.7,0.3,1.1,0.3c0.3,0,0.5-0.1,0.7-0.2c0.2-0.2,0.5-0.6,0.9-1.3l5.3-8.9
			c0.5-0.9,0.7-1.4,0.7-1.8c-0.1-0.4-0.4-0.8-1-1.1l-0.5-0.3l0.2-0.4l10.5,6.3l-1.7,3.1l-0.4-0.2c0.3-0.8,0.4-1.4,0.4-1.8
			c0-0.4-0.1-0.7-0.4-1.1c-0.2-0.3-0.7-0.6-1.3-1L87.4,274.7L87.4,274.7z M102.4,298.6l0.2-0.4c-0.8-0.4-1.3-0.9-1.7-1.5
			c-0.4-0.5-0.7-1.4-0.9-2.7l-1.1-5.5c1.3,0.3,2.5,0.2,3.3-0.2c0.9-0.4,1.5-1,1.9-1.9c0.4-0.8,0.4-1.7,0.2-2.5
			c-0.2-0.8-0.7-1.5-1.3-2.1c-0.6-0.6-1.7-1.2-3.3-1.9l-5.3-2.4l-0.2,0.4l0.5,0.2c0.5,0.2,0.9,0.6,1,1c0.1,0.3-0.1,0.9-0.5,1.8
			l-4.2,9.4c-0.4,0.8-0.7,1.3-0.9,1.5c-0.4,0.3-1,0.3-1.6,0l-0.5-0.2l-0.2,0.4l6.2,2.8l0.2-0.4l-0.6-0.3c-0.5-0.2-0.9-0.6-1-1
			c-0.1-0.3,0.1-0.9,0.5-1.8l1.9-4.2c0.1,0.1,0.2,0.1,0.3,0.2c0.1,0,0.2,0.1,0.3,0.1c0.2,0.1,0.5,0.2,0.9,0.4l1.9,9L102.4,298.6
			L102.4,298.6z M95.4,286.6l2.7-6c0.8,0.2,1.3,0.4,1.7,0.5c0.9,0.4,1.5,1,1.8,1.9c0.3,0.8,0.3,1.7-0.2,2.6
			c-0.4,0.9-1.1,1.5-2.1,1.8c-1,0.3-2.1,0.1-3.5-0.5c-0.1,0-0.1-0.1-0.2-0.1C95.7,286.7,95.6,286.6,95.4,286.6L95.4,286.6z
			 M116.7,285.7l-1.5,5.3l-0.4-0.1c0.2-1.1,0.1-1.9,0-2.6c-0.2-0.7-0.5-1.3-1.1-1.9c-0.5-0.5-1.2-0.9-1.9-1.1
			c-0.8-0.2-1.5-0.2-2.1,0.2c-0.6,0.3-1.1,0.8-1.2,1.4c-0.1,0.5-0.1,0.9,0.1,1.4c0.3,0.7,1.2,1.8,2.7,3.2c1.2,1.2,2,2.1,2.4,2.6
			c0.4,0.6,0.7,1.2,0.8,1.8c0.1,0.6,0.1,1.3-0.1,1.9c-0.3,1.2-1.1,2-2.2,2.6c-1.1,0.6-2.4,0.7-3.8,0.3c-0.4-0.1-0.9-0.3-1.2-0.5
			c-0.2-0.1-0.7-0.4-1.3-0.8c-0.7-0.4-1.1-0.7-1.3-0.8c-0.2-0.1-0.4,0-0.5,0c-0.1,0.1-0.3,0.3-0.4,0.6l-0.4-0.1l1.5-5.2l0.4,0.1
			c-0.1,1.2-0.1,2,0.1,2.7c0.2,0.6,0.5,1.2,1.1,1.8c0.6,0.6,1.3,1,2.1,1.2c0.9,0.3,1.8,0.2,2.4-0.1c0.7-0.3,1.1-0.9,1.3-1.5
			c0.1-0.4,0.1-0.8,0-1.2c-0.1-0.4-0.3-0.9-0.7-1.4c-0.2-0.3-0.9-1-2-2.1c-1.1-1.1-1.9-2-2.3-2.6c-0.4-0.6-0.7-1.2-0.8-1.8
			c-0.1-0.6-0.1-1.2,0.1-1.9c0.3-1.1,1-1.9,2.1-2.5c1.1-0.5,2.3-0.6,3.6-0.3c0.8,0.2,1.6,0.7,2.4,1.3c0.4,0.3,0.6,0.5,0.8,0.5
			c0.2,0.1,0.4,0,0.5,0c0.2-0.1,0.3-0.3,0.5-0.6L116.7,285.7L116.7,285.7z M121.2,303.1l-0.6-0.1c-0.4-0.1-0.7-0.3-1-0.5
			c-0.2-0.2-0.3-0.4-0.4-0.6c0-0.3,0-0.8,0.2-1.6l2.4-10c0.2-0.9,0.4-1.5,0.7-1.7c0.4-0.3,0.9-0.4,1.5-0.2l0.6,0.1l0.1-0.4l-6.6-1.6
			l-0.1,0.4l0.5,0.1c0.4,0.1,0.7,0.3,1,0.5c0.2,0.2,0.3,0.4,0.4,0.6c0,0.3,0,0.8-0.2,1.6l-2.4,10c-0.2,0.9-0.4,1.5-0.7,1.7
			c-0.4,0.3-0.9,0.4-1.5,0.2l-0.5-0.1l-0.1,0.4l6.6,1.6L121.2,303.1L121.2,303.1z M137.1,290l-0.4,3.7l-0.4-0.1c0-0.7,0-1.1-0.1-1.4
			c-0.2-0.5-0.4-0.9-0.8-1.1c-0.4-0.3-0.9-0.5-1.5-0.6l-2.2-0.3l-1.8,12c-0.1,1-0.1,1.6,0,1.9c0.2,0.4,0.7,0.6,1.3,0.7l0.5,0.1
			l-0.1,0.4l-6.7-1l0.1-0.4l0.6,0.1c0.7,0.1,1.2,0,1.5-0.4c0.2-0.2,0.4-0.8,0.5-1.7l1.8-12l-1.9-0.3c-0.7-0.1-1.3-0.1-1.6-0.1
			c-0.4,0.1-0.8,0.3-1.2,0.7c-0.3,0.4-0.6,0.9-0.8,1.6l-0.4-0.1l0.7-3.7L137.1,290L137.1,290z M145.8,287.1l0.1,0.4
			c0.4-0.1,0.7-0.1,1-0.1c0.2,0,0.4,0.1,0.6,0.3c0.1,0.1,0.3,0.3,0.3,0.5c0.1,0.3,0,0.9-0.3,1.8l-1.9,5.5l-4.4-4.2
			c-0.6-0.6-1-1-1.1-1.3c-0.1-0.3,0-0.6,0.3-0.9c0.3-0.2,0.6-0.4,0.9-0.5l0.3-0.1l-0.1-0.4l-6.6,1.6l0.1,0.4
			c0.3-0.1,0.5-0.1,0.7-0.1c0.6,0.1,1.1,0.3,1.3,0.4c0.2,0.1,0.7,0.5,1.4,1.2l5.8,5.5l0.9,3.6c0.2,0.9,0.3,1.4,0.2,1.7
			c-0.2,0.5-0.6,0.8-1.3,0.9l-0.6,0.1l0.1,0.4l6.6-1.6l-0.1-0.4l-0.5,0.1c-0.6,0.2-1.1,0.1-1.5-0.1c-0.3-0.2-0.5-0.8-0.8-1.7l-1-3.9
			l2.3-6.7c0.3-0.9,0.5-1.5,0.7-1.9c0.2-0.4,0.5-0.7,0.9-1c0.3-0.3,0.6-0.4,0.8-0.5l0.3-0.1l-0.1-0.4L145.8,287.1L145.8,287.1z
			 M164.6,281c1.9-0.7,3.9-0.6,5.8,0.3c2,0.9,3.4,2.5,4.2,4.7c0.9,2.3,0.8,4.4,0,6.4c-0.9,2-2.3,3.4-4.3,4.2c-2,0.8-4,0.7-6-0.2
			c-1.9-0.9-3.3-2.6-4.2-4.9c-0.9-2.4-0.8-4.6,0.2-6.7C161.2,283,162.7,281.7,164.6,281L164.6,281z M164.7,281.9
			c-1.3,0.5-2.2,1.4-2.6,2.7c-0.5,1.6-0.4,3.6,0.5,6c0.9,2.4,2.1,4.1,3.7,5c1.2,0.7,2.4,0.8,3.7,0.3c1.4-0.5,2.3-1.5,2.8-2.9
			c0.5-1.4,0.3-3.3-0.6-5.7c-1-2.5-2.2-4.3-3.6-5.1C167.4,281.4,166.1,281.3,164.7,281.9L164.7,281.9z M175.5,277.7l3.1-1.5
			c0.7-0.4,1.3-0.6,1.7-0.6c0.4,0,0.8,0,1.2,0.2c0.4,0.2,0.8,0.6,1.4,1.2l0.4-0.2l-1.7-3.1l-10.6,5.2l0.2,0.4l0.5-0.2
			c0.3-0.2,0.7-0.2,1.1-0.2c0.3,0,0.5,0.1,0.7,0.2c0.2,0.2,0.5,0.6,0.8,1.4l4.6,9.2c0.4,0.9,0.6,1.4,0.5,1.7c-0.1,0.5-0.4,0.9-1,1.1
			l-0.5,0.2l0.2,0.4l6.1-3l-0.2-0.4l-0.5,0.3c-0.3,0.2-0.7,0.2-1.1,0.2c-0.3,0-0.5-0.1-0.7-0.2c-0.2-0.2-0.5-0.6-0.8-1.4l-2.2-4.5
			l2.6-1.3c0.5-0.2,0.9-0.3,1.2-0.3c0.3,0,0.6,0.1,0.9,0.3c0.3,0.2,0.5,0.6,0.8,1.1l0.4-0.2l-2.4-4.8l-0.4,0.2
			c0.3,0.8,0.4,1.4,0.2,1.8c-0.1,0.4-0.5,0.7-1.1,1l-2.6,1.3L175.5,277.7L175.5,277.7z M196.3,262.5l2.4,2.8l-0.4,0.3
			c-0.5-0.5-0.9-0.8-1.1-0.9c-0.5-0.2-0.9-0.3-1.4-0.2c-0.5,0.1-0.9,0.3-1.5,0.7l-1.8,1.4l7.5,9.6c0.6,0.8,1.1,1.2,1.4,1.3
			c0.4,0.1,0.9-0.1,1.4-0.5l0.4-0.3l0.3,0.3l-5.3,4.2l-0.3-0.3l0.5-0.4c0.5-0.4,0.8-0.9,0.8-1.4c0-0.3-0.3-0.8-0.8-1.5l-7.5-9.6
			l-1.5,1.2c-0.6,0.5-1,0.8-1.2,1.1c-0.2,0.4-0.3,0.8-0.3,1.3c0,0.5,0.2,1.1,0.6,1.7l-0.4,0.3l-2.2-3.1L196.3,262.5L196.3,262.5z
			 M200.5,259.9l3.2-3c0.6-0.5,1-0.9,1.3-1c0.4-0.1,0.8-0.2,1.1-0.1c0.4,0.1,0.9,0.4,1.6,0.9l0.3-0.3l-2.5-2.4l-8.9,8.4l0.3,0.3
			l0.4-0.4c0.5-0.5,0.9-0.7,1.3-0.6c0.3,0,0.8,0.4,1.5,1.1l7.1,7.5c0.5,0.6,0.9,1,1,1.2c0.1,0.2,0.1,0.5,0,0.8
			c-0.1,0.4-0.3,0.7-0.6,0.9l-0.4,0.4l0.3,0.3l8.9-8.4l-1.7-3.8l-0.3,0.3c0.3,1.1,0.4,1.9,0.4,2.6c0,0.5-0.1,1-0.3,1.3
			c-0.2,0.4-0.6,0.9-1.3,1.5l-2,1.8c-0.3,0.3-0.6,0.5-0.7,0.5c-0.2,0-0.3,0-0.5,0c-0.1-0.1-0.5-0.4-0.9-0.9l-3.6-3.8l2.6-2.4
			c0.5-0.5,0.9-0.7,1.2-0.8c0.3-0.1,0.7-0.1,0.9,0c0.2,0.1,0.7,0.4,1.3,0.9l0.3-0.3l-3.8-4l-0.3,0.3c0.6,0.7,0.9,1.3,0.8,1.8
			c0,0.4-0.4,0.9-1,1.5l-2.6,2.4L200.5,259.9L200.5,259.9z M214.1,243.3l4.4,3.1l-0.2,0.3c-1.6-0.6-2.9-0.9-4-0.6
			c-1.1,0.2-2.1,0.8-2.9,1.8c-0.7,0.8-1.1,1.7-1.2,2.7c-0.1,1,0.1,2.1,0.7,3.2c0.6,1.1,1.6,2.2,2.9,3.3c1.1,0.9,2.2,1.5,3.3,1.8
			c1.1,0.3,2.2,0.3,3.2-0.1c1-0.4,1.9-1,2.7-1.9c0.7-0.8,1.1-1.6,1.2-2.5c0.2-0.9,0-2.1-0.4-3.7l0.4-0.1c0.6,1.5,0.8,2.9,0.6,4.1
			c-0.2,1.2-0.7,2.4-1.6,3.5c-1.7,2-3.7,3-6.1,2.9c-1.8-0.1-3.5-0.8-5-2c-1.2-1-2.1-2.2-2.7-3.6c-0.6-1.4-0.8-2.8-0.5-4.2
			c0.2-1.4,0.8-2.7,1.7-3.8c0.7-0.9,1.7-1.6,2.8-2.1c0.3-0.1,0.6-0.3,0.6-0.4c0.1-0.2,0.2-0.4,0.2-0.6c0-0.3-0.2-0.6-0.4-0.9
			L214.1,243.3L214.1,243.3z M223,244l-3.8-2.6c-0.6-0.4-1-0.8-1.2-1c-0.2-0.2-0.2-0.5-0.2-0.7c0-0.4,0.2-0.7,0.4-1l0.3-0.5
			l-0.4-0.2l-3.8,5.7l0.4,0.2l0.3-0.5c0.2-0.3,0.5-0.6,0.8-0.7c0.3-0.1,0.5-0.2,0.7-0.1c0.3,0.1,0.7,0.3,1.4,0.8l8.6,5.7
			c0.8,0.5,1.2,0.9,1.3,1.2c0.1,0.5,0,1-0.3,1.5l-0.3,0.5l0.4,0.2l3.8-5.7l-0.4-0.2l-0.3,0.5c-0.2,0.3-0.5,0.6-0.8,0.7
			c-0.3,0.1-0.5,0.2-0.7,0.1c-0.3-0.1-0.7-0.3-1.4-0.8l-4-2.7l4.1-6.1l4,2.7c0.8,0.5,1.2,0.9,1.3,1.2c0.1,0.5,0,1-0.3,1.5l-0.3,0.5
			l0.4,0.2l3.8-5.7l-0.4-0.2L236,239c-0.2,0.3-0.5,0.6-0.8,0.7c-0.3,0.1-0.5,0.2-0.7,0.1c-0.3-0.1-0.7-0.3-1.4-0.8l-8.6-5.7
			c-0.6-0.4-1-0.8-1.2-1c-0.2-0.2-0.2-0.5-0.2-0.7c0-0.4,0.2-0.7,0.4-1l0.3-0.5l-0.4-0.2l-3.8,5.7l0.4,0.2l0.3-0.5
			c0.2-0.3,0.5-0.6,0.8-0.7c0.3-0.1,0.5-0.2,0.7-0.1c0.3,0.1,0.7,0.3,1.4,0.8l3.8,2.6L223,244L223,244z M222.5,231.5l1.8-3.9
			l14.9-3.9l-8.4-3.8c-0.9-0.4-1.5-0.6-1.8-0.5c-0.4,0.1-0.8,0.5-1,1.1l-0.2,0.5l-0.4-0.2l2.3-5.1l0.4,0.2l-0.2,0.5
			c-0.3,0.6-0.3,1.1,0,1.6c0.2,0.3,0.6,0.6,1.5,0.9l12.2,5.6l-0.2,0.4l-16,4.2l8.9,4.1c0.9,0.4,1.5,0.6,1.8,0.5
			c0.4-0.1,0.8-0.5,1-1.1l0.2-0.5l0.4,0.2l-2.3,5.1l-0.4-0.2l0.2-0.5c0.3-0.6,0.3-1.2,0-1.6c-0.2-0.3-0.6-0.6-1.5-0.9l-10.1-4.6
			c-0.7,0.2-1.2,0.4-1.4,0.5c-0.3,0.1-0.5,0.4-0.9,0.8c-0.2,0.2-0.3,0.5-0.5,0.9L222.5,231.5L222.5,231.5z M231.6,209
			c-0.7,2-0.6,3.9,0.2,5.7c0.9,2.1,2.6,3.6,5,4.5c2.3,0.8,4.5,0.8,6.4-0.1c2-0.9,3.3-2.4,4-4.4c0.7-2,0.6-4-0.5-6
			c-1-2-2.7-3.3-4.9-4.1c-2.2-0.8-4.3-0.7-6.3,0.2C233.6,205.6,232.3,207.1,231.6,209L231.6,209z M232.3,209.5
			c-0.5,1.3-0.3,2.6,0.4,3.7c0.9,1.4,2.5,2.6,4.9,3.4c2.5,0.8,4.5,1,6.2,0.4c1.3-0.5,2.2-1.3,2.6-2.7c0.5-1.4,0.3-2.8-0.4-4.1
			c-0.8-1.3-2.4-2.4-4.7-3.2c-2.6-0.9-4.7-1-6.3-0.5C233.7,207.1,232.8,208.1,232.3,209.5L232.3,209.5z M248.6,192.4l0.2-0.4
			l3.8,2.4l-3,11.9l-0.4-0.1l0.1-0.6c0.2-0.7,0.1-1.2-0.3-1.6c-0.2-0.2-0.7-0.4-1.6-0.7l-10-2.5c-1-0.2-1.6-0.3-1.9-0.1
			c-0.4,0.2-0.7,0.6-0.8,1.2l-0.1,0.6l-0.4-0.1l1.8-7l0.4,0.1c-0.2,0.8-0.3,1.4-0.2,1.8c0.1,0.4,0.2,0.6,0.4,0.8
			c0.2,0.2,0.8,0.4,1.7,0.6l9.7,2.4c0.6,0.2,1.1,0.2,1.3,0.1c0.2,0,0.3-0.2,0.5-0.3c0.1-0.2,0.3-0.8,0.6-1.7l0.3-1.1
			c0.3-1.2,0.4-2,0.4-2.6c-0.1-0.5-0.3-1-0.6-1.5C250.1,193.6,249.5,193,248.6,192.4L248.6,192.4z M238.3,182c0.3-2,1.4-3.7,3.2-4.9
			c1.8-1.3,3.8-1.7,6.2-1.3c2.4,0.4,4.2,1.4,5.6,3.2c1.3,1.7,1.8,3.7,1.5,5.8c-0.3,2.2-1.4,3.9-3.2,5.1c-1.8,1.2-3.9,1.7-6.3,1.3
			c-2.5-0.4-4.4-1.6-5.7-3.5C238.4,185.9,238,184.1,238.3,182L238.3,182z M239.1,182.4c-0.2,1.4,0.1,2.6,1,3.6
			c1.1,1.3,3,2.1,5.5,2.5c2.6,0.4,4.6,0.2,6.2-0.7c1.2-0.7,1.9-1.7,2.1-3.1c0.2-1.5-0.2-2.8-1.2-3.9c-1-1.1-2.7-1.9-5.2-2.3
			c-2.7-0.4-4.8-0.2-6.3,0.6C240.1,179.8,239.4,180.9,239.1,182.4L239.1,182.4z M240.9,160.6l5,0l0,0.4c-1.3,0.3-2.3,0.8-2.9,1.3
			c-1,0.9-1.6,2-1.7,3.5c-0.2,2,0.5,3.6,2,4.8c1.3,1,2.8,1.6,4.7,1.7c1.5,0.1,2.9,0,4.2-0.5c1.3-0.5,2.3-1.2,2.9-2
			c0.7-0.9,1-1.8,1.1-2.8c0.1-0.6,0-1.2-0.1-1.7c-0.1-0.6-0.3-1.1-0.5-1.6l-4.6-0.4c-0.8-0.1-1.3-0.1-1.6,0
			c-0.3,0.1-0.5,0.3-0.6,0.5c-0.2,0.2-0.3,0.7-0.3,1.3l-0.4,0l0.5-6.1l0.4,0l0,0.3c-0.1,0.6,0.1,1,0.5,1.3c0.3,0.2,0.8,0.3,1.7,0.4
			l4.9,0.4c0.4,0.9,0.7,1.9,0.8,2.7c0.1,0.9,0.2,1.9,0.1,2.9c-0.3,3.1-1.5,5.3-3.6,6.7c-1.6,1.1-3.3,1.5-5.3,1.3
			c-1.4-0.1-2.7-0.6-3.9-1.4c-1.4-0.9-2.5-2.1-3.2-3.6c-0.6-1.2-0.8-2.6-0.6-4.2c0.1-0.6,0.1-1.1,0.3-1.6c0.1-0.5,0.4-1.1,0.8-1.9
			c0.2-0.4,0.3-0.7,0.3-0.9c0-0.1,0-0.3-0.2-0.4c-0.1-0.1-0.4-0.2-0.8-0.3L240.9,160.6z"/>
		<path class="st6" d="M241.7,148.2l0.1-5.5l0.4,0l0,0.3c0,0.2,0.1,0.5,0.2,0.9c0.2,0.4,0.4,0.8,0.7,1.1c0.3,0.3,0.9,0.7,1.6,1.2
			l5.9,4l4,0.1c1,0,1.6-0.1,1.8-0.3c0.3-0.3,0.5-0.8,0.5-1.4l0-0.5l0.4,0l-0.2,6.8l-0.4,0l0-0.6c0-0.7-0.2-1.2-0.6-1.5
			c-0.2-0.2-0.8-0.3-1.7-0.3l-3.7-0.1l-6.8,4.2c-0.8,0.5-1.3,0.8-1.5,1c-0.2,0.2-0.4,0.6-0.7,1.1c-0.1,0.2-0.1,0.4-0.1,0.7l-0.4,0
			l0.2-6.8l0.4,0l0,0.4c0,0.4,0.1,0.7,0.2,1c0.2,0.3,0.4,0.5,0.8,0.5c0.3,0,0.8-0.2,1.5-0.7l5.2-3.2l-4.8-3.3
			c-0.7-0.5-1.3-0.7-1.6-0.7c-0.2,0-0.4,0-0.6,0.2c-0.2,0.1-0.3,0.3-0.4,0.5c-0.1,0.2-0.2,0.5-0.2,0.9L241.7,148.2z"/>
	</g>
</g>
</svg>
